<?xml version="1.0" encoding="UTF-8"?>
<svg width="51px" height="68px" viewBox="0 0 51 68" version="1.1" xmlns="http://www.w3.org/2000/svg" xmlns:xlink="http://www.w3.org/1999/xlink">
    <!-- Generator: Sketch 61.2 (89653) - https://sketch.com -->
    <title>Central </title>
    <desc>Created with Sketch.</desc>
    <defs>
        <polygon id="path-1" points="0 0 51 0 51 68 0 68"></polygon>
    </defs>
    <g id="Page-2" stroke="none" stroke-width="1" fill="none" fill-rule="evenodd" opacity="0.5">
        <g id="Home-Page_With-menu-Destinations-2" transform="translate(-786.000000, -513.000000)">
            <g id="Group-7" transform="translate(374.000000, 493.000000)">
                <g id="Central-" transform="translate(402.000000, 19.000000)">
                    <rect id="Rectangle" opacity="0.404878162" x="0" y="0" width="71" height="69"></rect>
                    <g id="Group-3" transform="translate(10.000000, 1.000000)">
                        <mask id="mask-2" fill="white">
                            <use xlink:href="#path-1"></use>
                        </mask>
                        <g id="Clip-2"></g>
                        <path d="M50.6996046,27.890788 C50.3061556,27.7688935 49.9710298,27.5189277 49.5990642,27.3814057 C48.9074068,27.125561 48.6715546,26.514451 48.2074508,26.041756 C48.4199582,25.9513397 48.5921358,25.8996201 48.7400378,25.8107666 C49.0487165,25.6253201 49.0292496,25.2616456 48.6976139,25.1172772 C48.4887517,25.0264144 48.2573202,24.9828062 48.0355059,24.9199241 C47.9004783,24.8815995 47.8009721,24.8015271 47.7898039,24.6671305 C47.7777049,24.5224644 47.8972209,24.4597312 48.0166594,24.401835 C48.448034,24.192724 48.8579252,23.9286935 49.3865568,24.0331746 C49.5529176,24.0660668 49.7340142,24.0404674 49.9676173,23.8804715 C49.5543136,23.669128 49.2067786,23.4895605 49.1933612,23.0273583 C49.1872341,22.815866 48.9218325,22.8475675 48.7460873,22.8406468 C48.5251261,22.8318656 48.2463846,22.7687602 48.266472,22.560319 C48.3163414,22.0417834 47.8859751,21.7322099 47.7697165,21.2997743 C47.6615238,20.8970311 47.3394277,20.6383586 47.1234302,20.3095112 C46.9776997,20.2647867 46.8223521,20.2379223 46.6876348,20.1721379 C46.062289,19.8670294 45.466958,19.6209333 44.9179287,20.3262549 C44.7393914,20.5556072 44.4687159,20.5379705 44.2970813,20.2354665 C44.1671725,20.0064119 43.9729686,19.8205934 43.6835242,19.8594389 C43.2581991,19.9165909 42.879486,19.7005592 42.4719991,19.7066614 C42.1356324,19.7117217 42.0527235,19.5723392 42.0080504,19.2702818 C41.9152917,18.6438419 41.8413019,18.6038801 41.2052532,18.7459417 C40.8516687,18.8249722 40.6175227,18.7283049 40.2973655,18.5514908 C39.6703135,18.205081 39.0884774,17.5825108 38.2198339,17.9121768 C38.1161396,17.9515433 38.017564,17.9149302 37.9310099,17.8541318 C37.5182491,17.5645019 37.0023369,17.4748298 36.5926009,17.1412197 C36.3001317,16.9030862 36.0037846,16.5751318 35.5502286,16.5478208 C35.3465627,16.5354677 35.3284143,16.3713788 35.3213565,16.2186013 C35.3012692,15.7847519 35.006861,15.6107656 34.6363691,15.4198123 C33.850712,15.0147622 32.9277783,14.8417433 32.294444,14.1725882 C32.0803079,13.9463614 31.8568649,13.7402272 31.7138489,14.2340564 C31.6911246,14.3125661 31.6003823,14.3253658 31.5246863,14.2945572 C30.9798451,14.0726466 30.5536669,13.691261 30.1244639,13.3171681 C30.0486127,13.2510861 30.0404692,13.1230149 30.1116669,13.0419007 C30.5966337,12.4894311 30.8282203,11.7806119 31.295504,11.2318631 C31.4958349,10.9965574 31.4603911,10.879872 31.3623585,10.6758214 C31.1630358,10.2608738 31.2909281,9.872493 31.6151183,9.60756951 C31.8526768,9.41334189 31.9255808,9.2245467 31.8764869,8.97026479 C31.805134,8.60123232 31.9109224,8.34278308 32.2953747,8.20853534 C32.3618415,8.18531732 32.4445177,8.12161662 32.4606497,8.06186 C32.65687,7.33495756 33.4891391,7.1797243 33.874367,6.59570195 C34.1488429,6.1795637 34.2355521,6.06131555 33.759582,5.86225085 C33.5724358,5.78403888 33.3456578,5.77369496 33.2262194,5.59189493 C32.787787,4.92407937 32.1148985,4.68654123 31.3422711,4.64888637 C30.9028306,4.62745436 30.704361,4.42898499 30.6485197,4.01277232 C30.585543,3.54260754 30.3170391,3.17766799 29.8096582,3.08219135 C29.4971792,3.02347656 29.3011915,2.86749914 29.1353736,2.63725383 C28.8923861,2.2999973 28.5941001,2.20243699 28.2094927,2.42799404 C28.0313432,2.5324751 27.8054959,2.65578359 27.6547242,2.44845863 C27.3755173,2.06476607 26.9301048,1.8551342 26.6652461,1.43698669 C26.3502077,0.939585396 26.2239442,0.295211094 25.6261313,0 C25.1991775,0.13915925 25.157374,0.62815146 24.7869596,0.81210957 C24.8992628,1.10955316 25.3055088,1.244173 25.2778207,1.63396773 C24.9908581,1.7491648 24.7342981,1.72133295 24.5070547,1.50492915 C24.3576015,1.36271882 24.1917061,1.22780132 23.9691937,1.24781941 C23.4454482,1.29507403 22.9459006,1.14147793 22.4408465,1.06892164 C22.0625212,1.01459744 21.7415884,1.04302463 21.4103405,1.20413681 C21.0489227,1.37983466 20.7446648,1.68955701 20.2605512,1.5799412 C20.1024115,1.54414676 19.9114651,1.74060688 19.8758662,1.90216556 C19.7892345,2.29478813 19.4845888,2.58330171 19.3816701,2.96632453 C19.2920912,3.29933931 19.1957648,3.59923866 19.2968998,3.97028038 C19.411297,4.3902883 19.4454998,4.87593176 18.8338817,5.06569437 C18.7140555,5.10282831 18.6012869,5.18699361 18.587947,5.32808769 C18.5142674,6.10715624 17.9255288,6.58357203 17.4243525,7.09407067 C16.468069,8.068111 15.9169457,9.84436348 16.1936707,11.1761994 C16.2435402,11.4164165 16.2570352,11.6700287 16.2421441,11.9150085 C16.210966,12.4305674 16.345218,12.9415126 16.6215552,13.3314562 C16.9016928,13.7265345 16.9839812,14.1222081 17.0629347,14.5573226 C17.1332018,14.9441407 17.2584571,15.3238148 17.5416969,15.6292954 C17.7375295,15.84049 17.8046942,16.1089855 17.9007104,16.3634162 C17.9346805,16.4533116 17.9754758,16.6130099 17.9328967,16.6462741 C17.4258261,17.0425431 17.737607,17.6611693 17.4884149,18.1125066 C17.0592895,18.8896403 17.4683275,19.5402656 17.7815821,20.2096439 C17.8101233,20.2705168 17.8914035,20.3136785 17.9562415,20.3528961 C18.8129412,20.8710597 18.861182,21.0515202 18.329448,21.8001523 C18.5006173,22.0478855 18.9039161,21.856709 19.0525938,22.172087 C18.7640025,22.2798424 18.526444,22.4943114 18.1793743,22.5454357 C17.809813,22.5998343 17.5976158,22.8410933 17.6612905,23.3380481 C17.9141278,23.0699247 18.1735575,22.911938 18.5085282,22.9663366 C18.5834487,22.9785409 18.69994,22.9955824 18.734996,22.9575554 C19.2609131,22.3872258 19.8608976,22.734975 20.4311776,22.8350655 C20.6350761,22.87086 20.6132825,22.7095245 20.6978977,22.6455262 C20.815785,22.5564494 20.9139728,22.3793376 21.0798682,22.4588146 C21.2737618,22.5515378 21.3589975,22.7447236 21.3264233,22.9597879 C21.2471596,23.4820444 20.8039963,23.8699043 20.2381371,23.8529373 C19.7870629,23.8394679 19.5307355,24.0443371 19.189948,24.3130558 C18.5480049,24.8192383 17.7970161,25.2212374 16.9929779,25.4855655 C16.6676243,25.5925768 16.3663912,25.7052437 16.1905684,26.0177938 C16.0974219,26.1835199 15.9211338,26.2268304 15.7331345,26.2547367 C15.265463,26.324093 14.9370848,26.6008488 14.7016203,26.9722626 C14.4770139,27.3264861 14.1760134,27.5632057 13.7760496,27.7221598 C13.2746406,27.9214477 13.0470871,28.4528575 13.2232976,28.929943 C13.2748733,29.0695488 13.3630561,29.1971734 13.4102886,29.337821 C13.684144,30.1543956 13.9456678,30.3257028 14.8104334,30.4225934 C15.3297582,30.4807873 15.8172844,30.2041804 16.333817,30.3515254 C16.3866337,30.3665576 16.4698528,30.3072475 16.5302701,30.2695926 C17.0680535,29.9344942 17.1495664,29.9554053 17.2845939,30.5368975 C17.3340756,30.7502502 17.335937,30.9814629 17.3141433,31.2003969 C17.2897127,31.4458232 17.1850877,31.6511389 16.8657061,31.4717202 C16.6089909,31.3274262 16.437744,31.5678666 16.2200402,31.5875126 C16.0149783,31.6060424 15.8083653,31.6124422 15.6022951,31.6157165 C14.825402,31.6279209 14.8188872,31.628665 15.0676915,32.3799017 C15.1413711,32.6024077 15.0449672,32.709791 14.8538656,32.7768405 C14.3841001,32.9415991 14.7069718,33.1001811 14.8719365,33.2178339 C14.9904443,33.3022969 15.1613034,33.3167337 15.3050173,33.3715044 C15.7152187,33.5279283 15.8499361,33.7434391 15.7458539,34.0970674 C15.6285871,34.4957921 15.3375139,34.4791972 15.0079723,34.368986 C14.9398768,34.3462889 14.8598375,34.3564096 14.7563759,34.3494888 C14.6458565,34.8003053 14.629647,35.2351965 14.8507633,35.6499209 C14.9637645,35.8620085 14.9577926,36.0038467 14.7289981,36.1418897 C14.5254098,36.2648262 14.3744054,36.4261616 14.1487908,36.1523081 C14.0278011,36.0054095 13.7921816,35.9500435 13.6497861,35.8135632 C13.5019615,35.6719482 13.3690281,35.6176984 13.1724975,35.6907012 C12.7680353,35.841023 12.371484,35.7770246 11.961748,35.675669 C11.3713806,35.5295146 11.2751318,35.5699229 11.0263275,36.1031186 C10.8270048,36.5301961 10.3092312,36.7220424 10.1997976,37.2203367 C10.1726525,37.3439429 9.90663043,37.3900812 9.71777802,37.4025832 C9.47804791,37.418434 9.19783281,37.3213202 9.0744389,37.6651254 C9.03434169,37.7767505 8.30196661,37.4500611 8.20928544,37.2661774 C8.10628914,37.0620524 8.20564024,36.6745646 8.37680956,36.5957573 C8.48267549,36.5470887 8.57628734,36.5837018 8.67300149,36.6170404 C8.89915904,36.6950292 9.13516639,36.6932432 9.36124638,36.6461374 C9.50558081,36.616073 9.66333268,36.547312 9.76477784,36.4484122 C9.91919474,36.2979416 9.72987698,36.1877304 9.65511159,36.0717148 C9.5511846,35.9103794 9.55855256,35.7418999 9.60873223,35.5704438 C9.6432453,35.4524933 9.71816581,35.3287383 9.63044832,35.2162203 C9.34340816,34.847932 9.41359766,34.661146 9.90244233,34.5635857 C10.2081738,34.5024896 10.2951933,34.2233525 10.0795836,34.0063534 C9.87653814,33.8019307 9.71777802,33.6281677 9.69869888,33.3235056 C9.68132601,33.0446662 9.39544922,33.0396059 9.22179807,33.1356779 C8.53417364,33.5164682 7.87982136,33.1719932 7.21437836,33.0919952 C6.9251666,33.0571682 6.89778882,32.8828843 7.00970423,32.6612713 C7.11099427,32.4606439 7.22329747,32.2646303 7.3151255,32.0602075 C7.40858224,31.852064 7.49606705,31.6035122 7.20925957,31.4918127 C6.96743541,31.3976756 6.70234402,31.4198517 6.52132491,31.6698175 C5.95562081,32.4510441 5.95352676,32.4497046 5.15887303,31.820809 C4.90882779,32.4008873 5.70743694,32.6152074 5.67114005,33.1238456 C5.34788056,33.1341151 5.27381319,32.7903843 4.94985568,32.7747568 C4.86694676,33.0723492 4.96971039,33.4490466 4.64660602,33.6909754 C4.5793637,33.7412811 4.56261129,33.9702613 4.62139984,34.03932 C4.90580304,34.3729301 4.98204203,34.7324372 4.86547317,35.1389013 C4.83918119,35.2304339 4.89277339,35.3006832 4.96397114,35.3042552 C5.43009147,35.3276965 5.406514,35.7108682 5.53223464,35.9893355 C5.67393212,36.3034484 5.69471752,36.5775252 5.45909796,36.8850894 C5.27133135,37.1301437 5.38355699,37.4637538 5.37502567,37.7582951 C5.35369737,38.4854208 5.13901832,38.7819714 4.42936758,39.0314906 C4.23578416,39.0995819 4.02948132,39.1382042 3.84287807,39.2195417 C3.48712201,39.3747749 3.41638961,39.7328681 3.68582422,39.9960801 C3.77400705,40.0821802 3.90694053,40.124821 4.00148308,40.2064561 C4.14372345,40.3293181 4.14566239,40.4937046 3.98310196,40.5778699 C3.64572701,40.7526003 3.29361615,40.9169124 2.94406468,41.0500439 C2.68672903,41.1480507 2.33725512,41.0074032 2.12373944,40.7535678 C1.88563804,40.4704866 1.7281964,40.6974576 1.55462281,40.8314076 C1.54469545,41.0541369 1.52902885,41.2767917 1.52623678,41.4995953 C1.52290181,41.770621 1.61504007,41.9486257 1.9272864,42.0461116 C2.31158361,42.1660714 2.38099753,42.3797217 2.19633322,42.709611 C2.10031709,42.8811415 1.96660803,43.1321491 1.81467297,43.1582694 C1.24904642,43.2553088 0.966271925,43.855033 0.368769263,43.8608375 C0.266393417,43.861805 0.151763493,43.8701396 0.137027576,43.998434 C0.124230595,44.1089429 0.201012479,44.1836572 0.299898239,44.2202703 C0.395216356,44.2555438 0.502090534,44.2612739 0.598804685,44.2937195 C0.785640604,44.3565273 1.07904047,44.3617364 1.05631613,44.6083534 C1.03149775,44.8775186 0.737012077,44.7733353 0.550719061,44.8042926 C-0.0725326779,44.9077318 -0.117671119,44.9810323 0.171307973,45.557613 C0.290281114,45.7950023 0.281129334,46.0180292 0.253596436,46.2722366 C0.187517481,46.8813374 0.345114238,47.0060598 1.02475025,46.9525542 C1.18645755,46.939829 1.32637121,46.9822465 1.47279969,47.0376125 C1.643969,47.1024295 1.82778018,47.126987 1.98809144,47.0066552 C2.14111231,46.8919046 2.25403597,46.6484131 2.49787662,46.8085579 C2.72829983,46.9598471 2.97035666,47.1228197 3.0003714,47.4320211 C3.00517996,47.4813594 3.0087476,47.5312186 3.01898519,47.5796638 C3.19131786,48.3974291 3.34410605,48.5012404 4.22725284,48.4152891 C4.40633301,48.3978756 4.58704189,48.3919223 4.76720787,48.3896153 C5.1923003,48.3842573 5.51439642,48.5260956 5.67222585,48.941192 C5.86270697,49.4420909 6.22846795,49.680522 6.80518521,49.6316302 C7.56687701,49.567111 8.3326018,49.818565 9.0952243,49.6200957 C9.59717617,49.4894943 9.9801549,49.7972074 10.3964833,49.9591382 C10.6849971,50.071433 10.6255105,50.3722254 10.6721225,50.6098379 C10.7154772,50.8307811 10.543765,51.1896929 10.9165837,51.219534 C11.2935129,51.2497472 11.7588577,51.4502258 12.0461305,51.0553708 C12.1746432,50.8786311 12.3064133,50.8643431 12.4790562,50.8238604 C12.7790485,50.7535366 13.137519,50.7060587 12.8656026,50.2529354 C12.7961887,50.1372918 12.9173334,50.0153228 13.0237423,49.9442548 C13.3649175,49.7165397 13.5561742,49.3838226 13.7944307,49.0694864 C14.1283156,48.6287906 14.667495,48.3681833 15.2702716,48.5100216 C15.6144716,48.5910614 15.8182151,48.5478253 16.0791183,48.3023245 C16.4499206,47.953459 16.988402,48.0571215 17.259,48.4794363 C17.4027139,48.7037283 17.5696951,48.9306992 17.589705,49.1997157 C17.4585553,49.327638 17.3336102,49.2460773 17.2117675,49.2348403 C17.0252418,49.2177245 16.8156815,49.1997157 16.8490312,49.4670949 C16.8710576,49.6432393 16.8869568,49.9082372 17.1911372,49.8001841 C17.4003097,49.7258418 17.5297531,49.8600151 17.6965016,49.8840517 C18.6078017,50.0150996 19.4869931,49.985705 20.1909046,49.2980201 C20.3093348,49.182451 20.4816675,49.0798303 20.5990895,49.1549168 C20.9058292,49.3510792 21.4181738,48.8501059 21.5957804,49.4356166 C21.601287,49.4536999 21.7521362,49.4650856 21.7989809,49.4320446 C22.0485608,49.2564212 22.2408258,49.3802506 22.4183548,49.5332514 C22.8319687,49.8897074 23.2766832,49.722493 23.7376847,49.6558157 C24.1363301,49.5980683 23.8354071,49.0918114 24.1923266,49.0827326 C24.4632348,49.0759607 24.7190193,49.2303753 25.0097046,49.0496171 C25.1976263,48.9327829 25.2346988,48.7201744 25.4759025,48.5907637 C25.7649591,49.0357012 26.4451381,48.8562825 26.7665362,49.3339634 C26.8534781,49.4631508 27.0522578,49.3966967 27.2047358,49.3640278 C27.620056,49.2750254 28.0097047,49.3181126 28.4087378,49.4874107 C28.853142,49.6759826 29.3190297,49.6467368 29.7441997,49.3946874 C29.8904731,49.3079176 29.9827664,49.142266 30.2108629,49.2542631 C30.4568752,49.3751158 30.7950257,49.3530885 30.9407562,49.6256025 C31.2203508,50.1483799 31.6080605,50.4740274 32.2540366,50.523068 C32.5498408,50.5456163 32.6151441,50.8891982 32.3792919,51.0808213 C32.2452726,51.1896929 32.0268708,51.2152179 31.9177475,51.337038 C31.7779114,51.4931643 31.4344869,51.1855256 31.4499209,51.5278425 C31.4626403,51.8093609 31.3173752,52.1882908 31.6427287,52.3530494 C32.247134,52.6591997 32.1397945,53.0807704 31.9600938,53.5511584 C31.872609,53.7802875 31.8183188,53.9305348 32.1262995,54.1464177 C32.4936116,54.4038995 32.1994362,55.355466 31.7631755,55.5802789 C31.6508723,55.6381751 31.524376,55.682453 31.4323153,55.7625998 C31.1954549,55.9688085 31.2383441,56.1420506 31.5451614,56.2861958 C31.9856878,56.4931487 32.1152088,56.8813807 31.7628652,57.2055399 C31.5470228,57.4043069 31.5698247,57.5749444 31.5779682,57.7883716 C31.6081381,57.8144174 31.6366792,57.8419516 31.6635917,57.8711229 C32.2108371,57.7453587 32.3408234,58.1934217 32.4622784,58.5000186 C32.5995551,58.8464284 32.8422324,59.0079126 33.1461025,59.136207 C33.6866004,59.3642942 33.6898578,59.3571502 33.5729012,59.8763556 C33.4675782,60.3438414 33.2375427,60.4914842 32.7722755,60.5018281 C32.4105476,60.5099395 32.2543468,60.2156214 31.9626532,60.081076 C31.5557868,60.511279 30.9554921,60.7366872 30.7537651,61.3682619 C30.6455725,61.7070067 30.5811998,61.9857717 30.8513324,62.2529277 C31.0591864,62.4585411 31.0913727,62.686926 30.800222,62.778533 C30.4049892,62.9029577 30.5195416,63.1881225 30.4771952,63.4334 C30.8078227,63.6597757 31.0548432,64.1169175 31.5885161,63.7896328 C31.6327238,63.7625451 31.7708536,63.8529614 31.8513583,63.9078066 C32.4942321,64.3460466 32.9762517,65.3289425 32.9191694,66.0728119 C33.6337838,65.9666193 34.0205628,66.3096059 34.1918097,67.2116853 C34.2146892,67.3320915 34.1978592,67.458972 34.2064681,67.5824293 C34.2423772,68.0967976 34.2571131,68.1016347 34.7701557,67.7836521 C34.9013053,67.6199354 35.0779037,67.5420955 35.2825778,67.476832 C35.888922,67.2834974 36.3175821,66.8792658 36.364737,66.2658489 C36.4119695,65.6530273 36.8091413,65.3977035 37.3080684,65.2639767 C37.6039501,65.1846485 37.7333935,65.0292664 37.8595019,64.8078023 C38.0025955,64.5566459 38.0567306,64.2288402 38.4445954,64.176302 C38.5570537,64.1610466 38.6357745,64.0324545 38.5876889,63.9511171 C38.3146091,63.488394 38.7815826,63.4461253 38.9997517,63.3049568 C39.6373516,62.8924649 39.9950466,62.1279821 39.8529613,61.3939356 C39.7917685,61.077739 39.6823349,60.7573751 39.6974586,60.443411 C39.7197176,59.9808367 39.6098962,59.6143344 39.1973681,59.3550666 C38.9393344,59.1929126 39.0303093,58.9730112 39.0849098,58.7559376 C39.2759338,57.9954733 39.2749256,57.9953244 38.64989,57.6264408 C38.2221606,57.3740937 38.1269201,57.0851336 38.3244589,56.6725674 C38.4132622,56.4872698 38.576986,56.3644822 38.7501718,56.4673261 C39.087159,56.6673582 39.4509034,56.5948019 39.8022387,56.6439914 C40.3196245,56.7164732 40.3732167,56.7776438 40.4891651,57.3388946 C40.5032806,57.4072836 40.5523745,57.4691239 40.6242702,57.6111109 C40.8459294,57.3592104 41.1218013,57.2821147 41.4280757,57.3188021 C41.6097153,57.3405318 41.7930611,57.3572011 41.8285049,57.5877441 C41.8485147,57.7181966 41.9045888,57.8353285 42.0777746,57.7778044 C42.1765052,57.745061 42.2458416,57.6698257 42.2826814,57.5692143 C42.4295752,57.1682571 42.2802771,56.9592206 41.8071766,56.9082451 C41.7815826,56.9054917 41.7553682,56.9072777 41.7297743,56.904301 C40.9062692,56.8092709 40.8084692,56.6947436 40.9134044,55.9156006 C40.9431089,55.6951039 41.0059305,55.4788489 41.0405987,55.2587987 C41.071389,55.0632316 41.1366148,54.8279259 40.9886352,54.6823669 C40.2761924,53.9816591 40.7556526,53.1359132 40.5714536,52.4151129 C40.7989296,52.2681399 40.8798996,52.3657746 40.9704092,52.4582002 C41.1825288,52.6750505 41.3384969,52.5594069 41.4549106,52.3618305 C41.6460898,52.0371504 41.8162508,51.6990753 41.8483596,51.3214849 C41.8762027,50.9940514 42.0699413,50.8947795 42.370554,50.9316902 C43.0053618,51.0095301 43.6559137,50.8385949 44.2841292,51.0768772 C44.6233655,51.2055437 44.7589359,50.9360808 44.8114423,50.6890917 C44.9073033,50.2376055 45.0212352,49.8408156 45.7054471,50.0468011 C45.2636799,48.797791 46.1348828,48.1028877 46.6604897,47.2434491 C46.3213309,46.6549618 46.380197,46.2695576 47.0127557,45.7932907 C47.4146584,45.4907123 47.8141569,45.1612696 48.3082755,44.9958412 C48.6168766,44.8925508 48.7711384,44.7238481 48.7799799,44.4016982 C48.7913033,43.9845925 49.0068355,43.6520987 49.3317237,43.3836776 C49.8799774,42.9305542 49.8805203,42.931224 50.0276468,42.11904 C49.1972391,42.0571997 48.8899564,41.5282457 48.656586,40.815929 C48.508141,40.3630289 48.3085857,39.9790386 48.4899926,39.4939905 C48.5705748,39.2784797 48.446638,38.9400325 48.1999277,38.9913056 C47.6139035,39.1130514 47.4752308,38.6722068 47.2809494,38.3789305 C47.0564205,38.0397391 46.8683437,37.7079894 46.4660531,37.5328125 C46.2962023,37.4588423 46.1803315,37.3048741 46.1825806,37.1168231 C46.1870014,36.7422838 45.9565006,36.5905481 45.6184277,36.5264753 C45.4447765,36.4935087 45.2912903,36.3890276 45.3917272,36.2299247 C45.6720974,35.7853593 45.6230811,35.3085714 45.5981852,34.8333463 C45.5887232,34.6527369 45.6873763,34.5786923 45.8103048,34.4771135 C46.2826298,34.0870955 46.2854218,33.8031213 45.843577,33.3916713 C45.2132675,32.8047467 45.0569892,32.0974903 45.2824488,31.302571 C45.3441845,31.0847533 45.4584266,30.859866 45.7063003,30.8049465 C46.2268659,30.6896006 46.5761847,30.2748762 47.0713891,30.122322 C47.1433624,30.1001458 47.2444198,30.0681466 47.2685402,30.0144922 C47.5472041,29.3952707 48.2746155,29.1947177 48.6319227,28.6554198 C48.7110313,28.5360554 48.8338048,28.4293418 48.9347846,28.4886519 C49.4662083,28.8005323 50.0168663,28.2659971 50.5524005,28.5466225 C50.7072828,28.6277367 50.9297951,28.556892 50.9847058,28.3488229 C51.043727,28.124903 50.9283991,27.9617072 50.6996046,27.890788" id="Fill-1" fill="#FFFFFF" mask="url(#mask-2)"></path>
                    </g>
                </g>
            </g>
        </g>
    </g>
</svg>