<?xml version="1.0" encoding="UTF-8"?>
<svg width="55px" height="70px" viewBox="0 0 55 70" version="1.1" xmlns="http://www.w3.org/2000/svg" xmlns:xlink="http://www.w3.org/1999/xlink">
    <!-- Generator: Sketch 61.2 (89653) - https://sketch.com -->
    <title>East</title>
    <desc>Created with Sketch.</desc>
    <g id="Page-2" stroke="none" stroke-width="1" fill="none" fill-rule="evenodd" opacity="0.5">
        <g id="Home-Page_With-menu-Destinations-2" transform="translate(-971.000000, -513.000000)">
            <g id="Group-7" transform="translate(374.000000, 493.000000)">
                <g id="East" transform="translate(590.000000, 20.000000)">
                    <rect id="Rectangle" opacity="0.404878162" x="0" y="0" width="69" height="69"></rect>
                    <g id="Group-6" transform="translate(7.000000, 0.000000)">
                        <path d="M50.2343024,38.5560437 C50.2443084,38.4458816 50.2427285,38.3138603 50.181218,38.2408158 C50.2428339,38.3138603 50.2444137,38.4459899 50.2346184,38.5564765 C50.216081,38.7335149 50.1474083,38.862398 49.9832046,38.8829587 C50.1474083,38.862398 50.216081,38.7334067 50.2343024,38.5560437 M54.8934092,5.09600121 C54.8009327,4.81334576 54.9016246,4.4642468 54.9139478,4.14588067 C54.7104575,4.17693814 54.5074938,4.21470489 54.3029502,4.23699701 C53.5497622,4.31902336 52.8079494,4.41630791 52.1671445,3.80446491 C51.9260527,3.57429334 51.5603599,3.30007859 51.2244745,3.45482488 C50.4474828,3.81247276 49.9206408,3.44670882 49.2365468,3.0994495 C48.3137836,2.63099029 47.9609406,1.97759304 47.8838418,1.02963678 C47.5383717,1.03753641 47.1778399,1.11328634 46.8512232,1.03677891 C46.4122234,0.934083651 46.0606444,0.868722283 45.8152342,1.37202646 C45.7261282,1.55458379 45.5066283,1.7400629 45.3039806,1.67783975 C44.489598,1.42786498 43.482995,1.74244361 42.8900082,0.832037674 C42.9004355,1.19033484 42.7697257,1.72512934 42.9469897,1.87500599 C43.5408191,2.37657874 43.5096426,3.20084619 43.9277878,3.70036287 C44.6304192,4.53967208 43.7921276,5.16103794 43.8468972,5.8801212 C43.1695441,6.06257031 43.1538505,6.76098466 42.9369837,7.24091457 C42.4820797,7.20314782 42.3301992,6.59141303 41.971458,6.75871216 C40.9738077,7.22403316 39.8147977,6.84268637 38.8601205,7.43981225 C38.653997,7.56880355 38.4735732,7.50993504 38.2639739,7.46177973 C37.5801959,7.3044363 37.3481622,6.69984365 37.0793696,6.12998775 C36.7758193,6.32672114 36.5078693,6.44380889 36.3118572,6.63772871 C35.6828488,7.2601767 35.0843851,7.27186383 34.346048,6.77537715 C33.6535279,6.30983973 32.8836984,5.93054901 31.9862134,6.16602307 C31.8670894,6.19729697 31.6996206,6.14535416 31.5878695,6.07577244 C31.0390144,5.73381562 30.568206,5.78207914 30.0501062,6.20270768 C29.6454427,6.53124595 28.9270124,6.24880692 28.7839793,5.75989524 C28.7157279,5.52636902 28.7657579,5.25897177 28.7400583,5.00932165 C28.6733868,4.36144332 28.4112297,4.21611167 27.8254051,4.46067573 C27.4562366,4.61477273 27.2252561,4.95424063 26.8908453,5.14880973 C26.5448486,5.3499799 26.0941575,5.55948257 25.8335804,5.20508111 C25.5268703,4.78780721 25.2701903,4.42388291 24.718702,4.43567825 C24.1858565,3.64993505 23.3949617,3.6151983 22.5678346,3.61400795 C22.1317839,3.61346687 21.9743212,3.28471218 22.0444685,2.86094543 C22.0734332,2.68531381 22.1613806,2.51996253 22.1885548,2.34443913 C22.323583,1.475371 22.0090789,1.07508673 21.1456142,1.06837745 C20.5666358,1.06394067 20.044323,1.03926784 19.6833699,0.449933386 C19.4697683,0.101159068 18.9368174,-0.114728232 18.6878262,0.0643662449 C18.0935755,0.491812276 17.3136346,0.358384186 16.7761547,0.855953009 C17.0695936,1.33425971 17.5069082,1.710304 17.6539437,2.29595917 C17.8117224,2.9247918 18.3961778,3.37507102 18.328453,4.12899925 C18.3011735,4.4322154 18.6798214,4.52398103 18.9797905,4.53664209 C19.2184598,4.54681422 19.5788863,4.50071498 19.587207,4.80825969 C19.6054285,5.480378 20.0775007,5.74149882 20.638679,6.04882711 C20.3214363,6.28148761 20.0756049,6.31871329 19.84968,6.2707744 C19.131671,6.11884169 18.5750217,6.50289383 17.9891971,6.80686748 C17.8269947,6.89116633 17.664687,6.98228267 17.6811179,7.19275926 C17.6962848,7.38808587 17.8314184,7.50463254 18.0147914,7.56025463 C18.3160245,7.65169562 18.630318,7.71510913 18.9139616,7.84734687 C19.364442,8.05717417 19.3908789,8.58601689 18.9716804,8.85568664 C18.7707179,8.98489438 18.536999,9.06021145 18.2482997,9.19158347 C18.878572,9.87906819 19.1988691,10.7677231 20.1381686,11.1396552 C20.6434187,11.3397433 21.0984281,11.7030183 21.6327482,11.8803813 C21.9434606,11.9835095 22.1000807,12.2209314 22.0199275,12.5464396 C21.9454618,12.8490065 21.6431755,12.9520264 21.4328389,12.8340729 C20.7055612,12.4261055 19.9577448,13.2032997 19.2360493,12.7497741 C19.0989145,12.6635274 18.9322884,12.8187065 18.8248556,12.9923903 C18.3396176,13.7766185 17.3516573,14.0682557 16.9733254,14.9684895 C16.9404637,15.0467284 16.8033289,15.0932605 16.7054808,15.1254001 C16.0329727,15.3472392 15.5585832,15.950425 14.8516334,16.1180488 C14.5150107,16.1980191 14.3598652,16.5249342 14.2760255,16.8416771 C13.9698421,17.997621 14.1820744,19.0260886 15.0380609,19.8795739 C15.6382099,20.4778901 15.6344181,20.8909437 14.9928759,21.4580942 C14.8259338,21.6056984 14.6919588,21.7133715 14.7048086,21.9760073 C14.7386184,22.6671713 14.8051846,23.3603914 14.4244302,24.0068629 C14.2880327,24.2382248 14.4964733,24.3902658 14.7324041,24.4380964 C15.1915212,24.5312689 15.5045509,24.7519176 15.4985473,25.2966678 C15.4954928,25.5700168 15.6527449,25.793912 15.8834094,25.9015851 C16.4297367,26.1563213 16.6852581,26.6386319 16.9901776,27.1318722 C17.2539146,27.5584525 17.4422379,28.1994051 18.2380831,28.0223667 C18.5731259,27.9479153 18.7415426,28.4399652 18.6320033,28.7534617 C18.3856451,29.4588018 18.6566496,30.017187 18.858244,30.6756703 C19.1752761,31.7116047 19.5925787,32.4806829 20.7202015,32.5706089 C20.5205029,33.7517667 20.5196603,33.7507928 19.7751091,34.409709 C19.3340027,34.8000375 19.0411957,35.2834303 19.0258181,35.8899708 C19.0139162,36.35843 18.8044223,36.6037516 18.3852238,36.7540611 C17.7141903,36.994513 17.1716548,37.4735772 16.6259595,37.9135761 C15.7668132,38.6061468 15.6868706,39.1666963 16.1474623,40.0223459 C15.4336663,41.2722197 14.2505365,42.2827238 14.8504748,44.0989907 C13.9212866,43.7993456 13.7666677,44.3764518 13.6363791,45.0329873 C13.5651786,45.392042 13.380963,45.7838855 12.920266,45.5967832 C12.0671233,45.2502814 11.1836467,45.4988494 10.3216567,45.3856573 C9.91341212,45.3319831 9.65030715,45.4762326 9.61249502,45.9525914 C9.56888996,46.5016702 9.33769883,46.9931791 9.07806962,47.4653175 C8.92008025,47.7526262 8.70816383,47.920791 8.42009653,47.6055631 C8.29728612,47.4710529 8.18722019,47.3290759 7.87829829,47.5427989 C8.12844814,48.5909615 7.47732125,49.8209239 8.4448482,50.8398687 C8.64581069,51.0514274 8.55733664,51.3936007 8.51541679,51.6779876 C8.46833595,51.9980851 8.38302169,52.3124473 8.34268173,52.633086 C8.20017532,53.7661967 8.33299172,53.9326301 9.45145119,54.0709278 C9.48620885,54.0751482 9.5217038,54.072551 9.55646146,54.076555 C10.1990569,54.1506817 10.4017046,54.4547635 10.2022167,55.0378216 C10.1521867,55.1840189 10.0580251,55.2935317 9.92405008,55.3410377 C9.68875123,55.4247955 9.61260035,55.2544664 9.58542618,55.0646587 C9.53729208,54.7295194 9.28840615,54.7051712 9.04162674,54.6735726 C8.6257987,54.620223 8.2510479,54.7323329 7.95002547,55.0986379 C7.85238803,54.8921653 7.78571652,54.8023475 7.76654714,54.7027905 C7.60908439,53.8867473 7.53630395,53.7977952 6.83367253,53.6923946 C6.35654461,53.620865 5.86266982,53.7262656 5.40502725,53.4353859 C5.16983373,53.2858339 4.94738469,53.4644955 4.82689146,53.7338406 C4.55852017,54.3337801 4.68786081,54.754084 5.26873508,55.1210383 C6.11766467,55.6573478 6.11892859,55.6576724 5.85951003,56.7635132 C5.78536035,57.079174 5.66181265,57.3988387 6.01223309,57.6346374 C6.57246342,58.0116556 6.72171072,58.5447187 6.69137676,59.217378 C6.67083814,59.6738255 6.81945348,60.1397958 6.9025559,60.5994896 C7.09551359,61.6669143 6.60974892,62.7787069 5.74396713,63.3784299 C5.44757906,63.5837122 4.8134097,63.6452861 5.18436876,64.3180537 C5.2495657,64.4363318 5.14276489,64.6234341 4.99004182,64.645618 C4.46330524,64.721909 4.38968219,65.1987007 4.19546058,65.5639236 C4.02420009,65.885969 3.84841058,66.1119202 3.44659093,66.2271683 C2.76902715,66.4217374 2.22965142,66.7930203 2.16550773,67.6841641 C2.10136405,68.5760654 1.51922585,69.1638849 0.695785218,69.4450253 C0.41782924,69.5399292 0.178106691,69.653013 0,69.8911924 C0.897379663,70.0732087 1.80276412,70.0000391 2.6885579,69.8672771 C3.28354589,69.7780004 3.9680612,69.857646 4.44571575,69.3653797 C4.94253968,68.8533102 5.6700281,68.8039645 6.20866655,68.3599617 C6.41426339,68.1906065 6.82619436,68.2759875 7.04432503,68.5935961 C7.12732212,68.7143631 7.22243172,68.8140284 7.38326491,68.7799409 C7.56442606,68.7414167 8.27516761,67.8332832 8.17710887,67.7291812 C7.67259612,67.1941703 8.27285043,66.6683575 8.13445174,66.141138 C7.97088007,65.5189065 8.55860055,65.3355916 8.89132618,65.13572 C9.21625767,64.9405017 9.35750017,65.4468358 9.56962724,65.6628313 C9.90761918,66.0068442 9.83736657,66.4111324 9.59785467,66.9805555 C10.2763664,66.7417268 10.5929771,66.3334346 10.8747248,65.97741 C11.1690064,65.6056942 11.3282597,65.6799292 11.6285448,65.915295 C12.0947188,66.2806261 12.4651512,66.2080144 12.6643232,65.6870713 C12.796297,65.3418681 13.1511411,64.9309788 12.6150305,64.5700845 C12.4745253,64.4755053 12.4377664,64.1824613 12.5765864,64.0836617 C12.9920985,63.7884534 13.0076867,63.0067142 13.7688796,63.1100587 C14.0556829,63.149124 14.3898831,62.9953517 14.6147547,62.7408319 C14.798549,62.5329525 15.0495415,62.3304837 14.7384077,62.0209912 C14.6296057,61.912777 14.4042075,61.8284781 14.5829462,61.6031762 C14.7152359,61.4363099 14.897029,61.4169396 15.0463817,61.537382 C15.3131731,61.7522953 15.4568381,61.7575978 15.4942289,61.3636982 C15.5060254,61.238819 15.5380446,61.0563699 15.7480652,61.1505162 C16.3489514,61.4199696 16.3713859,60.7940587 16.6164801,60.5018804 C16.9009663,61.0854795 16.8935935,61.1069059 17.4567729,61.3127293 C17.6878587,61.3971364 17.8072987,61.5627041 17.871653,61.7469928 C18.1211709,62.4617475 18.5397375,62.8559718 19.3296843,62.7355294 C19.4773517,62.7131291 19.647243,62.8612743 19.809972,62.9220907 C20.7169364,63.2612339 21.6013609,62.9382146 21.8232833,62.0117929 C21.9482003,61.4906334 22.2629151,61.2709586 22.5926916,61.1224888 C22.9277344,60.9717464 23.236235,60.9582196 23.2875289,60.4720133 C23.3042758,60.3132631 23.6516417,60.2480099 23.7876179,60.4996079 C23.8845181,60.6789188 23.856712,60.927054 24.0711562,61.0458731 C25.0181445,59.5026306 26.0563454,58.0419556 27.6358179,57.0763604 C27.2193579,56.6720722 26.8267016,57.1918249 26.5065098,56.9433652 C26.3291404,56.3403957 26.6968343,56.0093685 27.0546276,55.7340716 C27.5523995,55.3509934 28.0187841,54.8656528 28.6707536,54.7805965 C29.0406594,54.7322247 29.2722718,55.2059864 29.0613034,55.5560593 C28.9160585,55.7968359 28.704458,55.9956253 28.5225596,56.2131358 L28.5443621,56.2391072 C28.5333029,56.2260133 28.5226649,56.2133523 28.5228756,56.2135687 C28.4381933,56.2448426 28.3529843,56.2756836 28.267986,56.3065247 C28.2950549,56.3434257 28.3397132,56.4153881 28.3465594,56.4118171 C28.4242902,56.3709121 28.4960174,56.3184282 28.5695351,56.2689744 C29.0320227,56.2841243 29.473761,56.2148673 29.8882198,55.9806918 C30.7814917,55.476089 31.7262682,55.1397593 32.7223385,54.8835081 C33.5816954,54.6624266 34.4605377,54.3610501 34.7782016,53.2652732 C34.9095435,52.8120722 35.3698192,52.4766082 35.8355719,52.262777 C36.0914093,52.1452564 36.3462989,52.0225415 36.5900238,51.8812138 C37.0176484,51.6330787 37.3551137,51.3360307 37.0490356,50.7622791 C36.8507063,50.390347 37.062728,50.1440515 37.3186708,49.932601 C37.6177974,49.6853315 37.9581065,49.4855682 38.233324,49.2144916 C38.4768383,48.9744726 38.862859,48.772112 38.7625884,48.3030035 C38.2847232,48.2616657 37.950523,48.8364995 37.4755016,48.5130473 C37.5731391,48.1552912 37.8299245,48.1032402 38.0571132,48.0400431 C38.5659443,47.8986071 38.5082255,47.5695278 38.332752,47.2077678 C38.22395,46.9832233 38.0595357,46.7858407 37.9617929,46.5572923 C37.6917364,45.9264036 37.4041957,45.25158 37.7208065,44.586712 C38.1597009,43.6646189 38.8781313,42.977026 39.7641357,42.4872486 C41.138854,42.6977252 42.0706753,41.7656764 43.1143531,41.1199624 C43.1721773,41.0842517 43.2586501,41.0950731 43.3135251,41.0566571 C43.4262242,40.9778771 43.5874787,40.9003958 43.6226576,40.7874202 C43.8954526,39.9116428 44.628418,39.4303061 45.1969691,38.8105634 C45.6465016,38.3203532 46.2231628,37.9065421 45.9924983,37.0510008 C46.3500809,37.3741283 46.3423921,37.7985444 46.2139994,38.0723263 C45.8582073,38.8311241 46.309741,39.3119198 46.6050758,39.9318788 C47.0256435,39.559081 47.2486192,38.8781973 47.9132278,39.3325887 C48.0984967,39.3567204 48.2733383,39.4000061 48.3673946,39.5924109 L48.3673946,41.6230501 C48.8442066,41.4652738 48.9876609,41.1855402 48.9683862,40.8456394 C48.9432132,40.4023941 49.124585,40.0042741 49.1656623,39.5784513 C49.3197546,39.5781267 49.4742682,39.5776938 49.6286765,39.5773692 C49.5389385,40.3279427 49.6470032,41.050056 49.9192716,41.7573439 C50.5855655,41.2275273 50.493721,40.5058469 50.4206246,39.7889279 C50.5016205,39.7910922 50.583143,39.7933647 50.6644548,39.7956372 C50.5666068,40.3067328 51.0340447,40.6077846 51.1101955,41.0619596 C51.1552752,41.3302225 51.3569749,41.5113731 51.6409345,41.3748068 C51.8939282,41.2532822 51.986194,40.9871836 51.8310484,40.7521424 C51.4516632,40.1777415 51.4450277,39.3968679 50.8662599,38.9385808 C50.8788991,38.8681334 50.8827962,38.7969285 50.8777405,38.7251825 C51.0119261,38.7365449 51.1460065,38.747691 51.2801921,38.7590535 C51.3853077,38.8791712 51.4592467,38.8554723 51.5062222,38.7073271 C51.7739616,38.4901412 51.5822678,38.2866986 51.4884221,38.0801177 C51.5312899,37.7671623 51.5079075,37.4491208 51.6325084,37.1414679 C51.7471034,36.858596 51.5638357,36.6784194 51.331486,36.5518088 C51.0062385,35.6408617 51.028357,34.6394477 50.6349635,33.7444082 C50.458542,33.3429335 50.4321051,32.9113754 50.4493786,32.4740818 C50.4578047,32.2597095 50.5158395,31.9821401 50.4124091,31.8396221 C49.8591303,31.0766038 49.922958,30.3221345 50.3941877,29.5914724 C50.1717386,29.3759097 49.9560305,29.385649 49.7489591,29.4080493 C48.8260904,29.5077146 48.8150312,29.5092296 48.9602761,28.6453557 C49.0669716,28.0106796 49.1869382,27.4397415 48.3779272,27.1271107 C47.9873775,26.9760437 47.6243179,26.6365758 47.6922533,26.0431292 C47.7493402,25.5450193 47.7090002,25.1246072 48.2431096,24.7683661 C48.8946578,24.3336698 48.8833879,23.5116748 48.7453052,22.7939983 C48.6282877,22.18551 48.2081413,21.9110788 47.5679684,21.7731057 C46.7295714,21.5926044 45.913293,21.2532448 45.1792743,20.7451792 C44.3382442,20.1628786 44.1177963,19.5645624 44.4493634,18.6012397 C44.5542683,18.2964004 44.6423211,17.9853928 44.7341656,17.6760084 C44.8433889,17.307972 45.1492563,17.1746521 45.3592769,17.4344744 C45.7785807,17.9530368 46.026624,17.5644396 46.1770299,17.2860045 C46.3692503,16.9304127 46.7567456,16.6584705 46.67101,16.1461845 C46.5881182,15.6506718 46.9265315,15.5565254 47.325086,15.5477601 C47.8820513,15.5354236 48.4316436,15.5160533 48.9902941,15.3979916 C49.5518936,15.2791725 49.7629675,15.0098274 49.7787664,14.4733014 C49.0362163,14.4128097 49.0300021,14.4158397 48.7148659,13.7497814 C48.5531901,13.4079328 48.4550261,13.1258184 47.9488281,13.3638896 C47.3337228,13.6531461 46.5223947,13.3419221 46.2883597,12.7225041 C45.9815444,11.9104649 45.4297401,11.5396149 44.6416891,11.4376771 C44.4255597,11.4097578 44.201952,11.3824879 44.17225,11.1098963 C44.0829334,10.2896328 44.4845424,9.56319099 44.6217825,8.78523921 C44.6355802,8.70721678 44.7698712,8.62064543 44.8634009,8.5937001 C45.4701854,8.41882598 45.6228032,7.77884729 46.0350501,7.40702335 C46.2793017,7.18680748 46.2512849,6.96356162 45.9955528,6.78825464 C45.6284908,6.53644023 45.3595929,6.25043014 45.4657617,5.68609316 C46.0365247,6.07360816 46.5395628,6.45203316 47.077148,6.7688843 C47.5078271,7.02264656 47.85098,7.24232136 47.6096776,7.85210829 C47.4882364,8.15922015 47.8554037,8.27728182 47.9543051,8.13649517 C48.3924623,7.51274861 48.9741792,7.96616604 49.4735309,7.90881252 C49.4744788,7.49164684 49.1959962,7.28257704 49.0474862,7.00446658 C48.9755484,6.86952349 48.9684915,6.72365077 49.0786628,6.60883552 C49.2289634,6.45224959 49.4048582,6.48612063 49.5473646,6.61262302 C49.8936773,6.92027594 50.1726866,7.24838135 50.2474682,7.76488766 C50.3701733,8.61112259 51.7960801,9.59359917 52.6019312,9.47780999 C52.8961075,9.43549825 53.0095438,9.22718594 53.1371992,9.01595185 C53.3727087,8.62627257 53.6002134,8.2312908 53.8309833,7.83858152 C53.9152443,7.73134126 53.993607,7.61858208 54.0846089,7.51783467 C54.701926,6.83392102 55.2342449,6.13886131 54.8934092,5.09600121" id="Fill-1" fill="#FFFFFF"></path>
                        <path d="M47.8569791,40.7352151 C47.8042329,40.72067 47.7064487,40.7271345 47.6557947,40.7462171 C47.4084711,40.839579 47.3601296,40.9720385 47.4680446,41.1228348 C47.5345555,41.2156994 47.5909356,41.3165203 47.8370479,41.3636364 C48.0544195,41.2645559 48.0451697,41.1584515 48.0403245,41.0587495 C48.0343782,40.9425133 48.1079366,40.8047703 47.8569791,40.7352151" id="Fill-4" fill="#2C4058"></path>
                    </g>
                </g>
            </g>
        </g>
    </g>
</svg>