<?xml version="1.0" encoding="UTF-8"?>
<svg width="49px" height="70px" viewBox="0 0 49 70" version="1.1" xmlns="http://www.w3.org/2000/svg" xmlns:xlink="http://www.w3.org/1999/xlink">
    <!-- Generator: Sketch 61.2 (89653) - https://sketch.com -->
    <title>North </title>
    <desc>Created with Sketch.</desc>
    <g id="Page-2" stroke="none" stroke-width="1" fill="none" fill-rule="evenodd" opacity="0.5">
        <g id="Home-Page_With-menu-Destinations-2" transform="translate(-374.000000, -513.000000)" fill="#FFFFFF">
            <g id="Group-7" transform="translate(374.000000, 493.000000)">
                <g id="North-" transform="translate(0.000000, 20.000000)">
                    <path d="M47.8532969,6.97887985 C47.795172,6.80012952 47.5447477,6.75267834 47.3248483,6.79509112 C46.4990257,6.95428946 45.8176526,6.55527842 45.1739294,6.14859699 C44.8386804,5.93683388 44.5958311,5.93164508 44.4278315,6.22936176 C44.2131071,6.6098736 43.9392079,6.57889121 43.6011089,6.50572164 C43.0038106,6.3763777 42.4344122,6.3787841 41.8637388,6.70041436 C41.3694152,6.97903025 40.7560669,7.06603661 40.3005932,7.38759168 C39.8160946,7.72960114 39.1233965,7.40857247 38.7571726,7.97279784 C38.0257746,7.96084104 37.2990267,8.16824256 36.5569788,8.0516074 C36.5852537,7.65545397 37.0883523,7.75569553 37.1450521,7.40421087 C36.9368527,7.12905419 36.7252033,6.8618687 36.3146545,6.87224629 C36.1987798,6.87510389 36.0353553,6.83893271 35.9719804,6.75854394 C35.6989812,6.41254888 35.3343322,6.43435687 34.9550583,6.42653608 C34.4329098,6.41578248 34.2671603,6.25026735 34.1594606,5.72364197 C34.1194107,5.52767085 34.0914358,5.32801493 34.0348859,5.13693181 C33.9600361,4.88403432 33.8104115,4.65610321 33.5312623,4.64467281 C33.0529137,4.62497042 32.8613642,4.28326176 32.6199399,3.9586987 C32.3659156,3.61729084 31.874892,3.85845714 31.5466929,3.52216288 C31.174094,3.14029744 30.8481449,2.77843519 30.6517205,2.2668498 C30.3701713,1.5335749 29.9981723,1.36324697 29.2565744,1.56613649 C28.9832002,1.64088526 28.8759505,1.5505701 28.8320756,1.32166139 C28.8042507,1.17645025 28.8149007,1.02198951 28.8219506,0.872341576 C28.8368756,0.552516109 28.685151,0.40497377 28.3727019,0.426104961 C27.8101285,0.464231345 27.2596301,0.076199506 26.6865567,0.38060898 C26.6360068,0.407455369 26.5142072,0.386474578 26.4799323,0.343760995 C26.1245833,-0.0987156215 25.7493593,-0.0988660215 25.3334855,0.256228232 C25.2909606,0.292474617 25.1882859,0.261642629 25.1139611,0.256228232 C24.5678877,0.216221848 24.0690641,0.426029761 23.6289653,0.681258456 C23.3694661,0.831733593 23.1960665,0.808572003 22.9491672,0.76743762 C22.6025182,0.709684044 22.2725942,0.47656414 21.8306204,0.642004072 C22.1033946,0.783079213 22.2536192,0.966867937 22.3761689,1.24112222 C21.96232,1.47567093 21.5445712,1.56245169 21.1387474,1.43167894 C20.7168736,1.2957174 20.3017497,1.33587418 19.8801759,1.31669819 C19.5175519,1.3001542 19.2852776,1.42867095 19.0726532,1.73323082 C18.8339289,2.07516508 18.6204795,2.41837774 18.2180306,2.67390723 C17.7813068,2.95124472 17.4055579,3.32626696 16.9298343,3.59608445 C16.5446353,3.81446516 16.7952096,4.37109533 16.7352848,4.77206156 C16.6924599,5.05917504 16.8864094,5.09564703 17.0021341,5.23303737 C17.2087585,5.47811407 17.4392328,5.44788368 17.733082,5.3989285 C18.5567297,5.26183896 18.7702541,5.4088549 19.1920529,6.15190579 C19.3384524,6.40999208 19.5712518,6.6118288 19.858726,6.72162075 C20.3810245,6.92097587 20.8473732,7.28291332 21.4674714,7.19523016 C21.6987708,7.16244297 21.7435457,7.35833889 21.619796,7.55551321 C21.5270963,7.70313075 21.4127216,7.84187469 21.3475468,8.00084742 C21.264822,8.20268414 21.2912969,8.43016405 21.5076713,8.51837361 C21.8388704,8.65335755 22.0852447,8.91024065 22.3928188,9.07131898 C22.9875671,9.38294765 22.9706922,9.36986286 22.7560428,9.95785141 C22.5752183,10.4531936 22.2886441,10.7418111 21.7367957,10.7953535 C21.4706214,10.8212223 21.1674723,10.879051 21.1133974,11.3039309 C21.0356977,11.9144794 20.9948228,11.928993 20.3748745,11.9599754 C20.0559754,11.9759178 19.9638757,12.1087961 19.9062008,12.4042568 C19.8166511,12.8636534 19.9527757,13.2891348 19.9926006,13.7307843 C20.0616004,14.4954927 20.3104497,15.2263612 20.3454746,16.0033273 C20.3622746,16.3761688 20.1418502,16.724495 20.3113497,17.1061349 C20.4441743,17.4052051 20.3872495,17.7301442 20.3327246,18.0609489 C20.2625248,18.4874079 20.2526249,19.0017005 20.546774,19.3081403 C20.8023733,19.5744986 21.1097224,19.9455353 21.618896,19.8407817 C21.8060955,19.8022793 22.0433198,19.9104921 22.1449445,20.0802184 C22.4056438,20.5157014 23.0768169,20.4788535 23.2140665,21.0425524 C23.2224665,21.076994 23.3077412,21.1287316 23.3330162,21.1175268 C23.7702649,20.9235109 24.2778635,21.3501955 24.7585371,20.7828117 C24.6557124,21.3281619 24.7722621,21.695213 24.6131125,22.0680544 C24.5222878,22.2807199 24.5691627,22.5343694 24.9419116,22.4253295 C25.2193358,22.3441887 25.4855851,22.3546415 25.6751095,22.6328062 C25.7312844,22.7153005 25.858409,22.8005773 25.9298838,22.7480125 C26.3876825,22.4113423 26.6367568,22.9385692 26.9974308,23.0033164 C27.3602798,23.0685148 27.4779544,23.3749547 27.4549295,23.7536617 C27.4083546,24.5222054 27.1621303,24.7846533 26.4026075,24.8033781 C26.227708,24.8076645 26.0524335,24.8102965 25.877759,24.8039797 C25.6643846,24.7963093 25.4659351,24.8425573 25.3575604,25.0346932 C25.1972109,25.3185731 24.9623866,25.4585202 24.6526374,25.5348482 C24.2435886,25.6356913 24.1763138,26.0859887 23.9132895,26.3455038 C23.759315,26.4973326 24.0323892,26.6942813 24.0728141,26.8817548 C24.1719638,27.3418282 24.440013,27.7871624 23.9699144,28.245807 C23.7222651,28.4874997 23.75144,28.9074916 23.8427897,29.2522082 C23.9287395,29.5763201 24.2635385,29.1436947 24.3980131,29.4016306 C24.4073881,29.5737633 24.2405886,29.5645137 24.1531388,29.6376833 C23.5688905,30.1263327 23.031592,30.6617564 22.4984935,31.2068058 C22.1378195,31.5754361 21.8734453,32.0454359 21.4175216,32.3155542 C21.0659226,32.5238581 20.8895981,32.9165523 20.9519229,33.3136833 C21.0219727,33.7600704 21.0934475,34.217963 20.567699,34.4871037 C20.4437243,34.5505724 20.3361746,34.6867596 20.2699498,34.8148251 C20.1187502,35.1076538 19.8844509,35.1545786 19.5845268,35.1515706 C18.430955,35.1398394 18.3793552,35.1369818 18.1531558,36.2476101 C17.8831566,37.573536 17.0820838,38.5928716 16.3647109,39.6672535 C16.2710361,39.8075015 16.1235865,39.9269942 15.975987,40.0129478 C15.3732137,40.3640564 14.7776403,40.7414851 14.1108172,40.9553538 C13.2933195,41.2175761 12.9499705,41.8615134 12.791496,42.6061435 C12.7192712,42.9454458 12.6021215,43.1469817 12.3084973,43.2861016 C11.9056735,43.4769591 11.6570492,43.7847526 11.5018746,44.218882 C11.1916755,45.0871409 10.9127513,45.2866464 9.98995387,45.2455872 C8.95000681,45.1993392 7.94965964,45.2352096 7.03083723,45.8199646 C6.63596335,46.0712829 6.27326437,45.9053917 5.95849026,45.5894015 C5.7340909,45.3641776 5.63629117,45.0932321 5.56901636,44.7947634 C5.42959176,44.1765444 5.08969272,43.9802725 4.48369443,44.1743636 C4.04172068,44.3159652 3.72169659,44.5975891 3.45139735,44.9904337 C2.95782374,45.707691 2.5478749,46.5478251 1.77470209,46.9799241 C0.909054535,47.4637607 0.290081284,48.0432516 0.173831613,49.0657456 C0.160181652,49.185464 0.071231903,49.2944287 0.0373319988,49.4141471 C-0.036317793,49.6744894 -0.0116428627,49.9790492 0.208106516,50.101174 C0.833529749,50.4489738 1.23717861,51.1945815 2.1261511,51.0938888 C2.62212469,51.0377144 2.94349879,51.2992599 2.96907371,51.6593925 C3.00357362,52.1454851 3.08592338,52.6333825 2.67852453,53.0717984 C2.27645067,53.504499 2.31192557,53.9135868 2.63509966,54.4287066 C2.68759951,54.512329 2.77309927,54.5939209 2.78262424,54.6829577 C2.85679903,55.3738198 3.3266727,55.5812965 3.92127102,55.6490517 C4.11919546,55.6716869 4.31591991,55.7194389 4.51399435,55.7241765 C4.82734346,55.7317717 4.96181808,55.872922 4.95739309,56.1877843 C4.94846812,56.8255552 5.08564273,57.4424206 5.39351686,57.9942379 C5.82994063,58.7766184 6.14396474,59.6292356 6.7234131,60.331829 C6.8641127,60.5024577 6.95066246,60.7179808 7.06218714,60.9128991 C7.18211181,60.9926111 7.1503869,61.138875 7.20753673,61.2443054 C7.30083647,61.4165885 7.44138607,61.5430749 7.6075106,61.3471037 C7.82403499,61.0915742 8.1051342,61.1320318 8.36403347,61.1627134 C8.68150757,61.2003134 8.98548171,61.3351469 9.31720577,61.3028862 C9.38590558,61.2961182 9.49435527,61.3160461 9.52548018,61.3629709 C9.90115412,61.9296779 10.290178,61.5346525 10.6299271,61.3491341 C10.9138013,61.1940718 11.0681508,61.1542158 11.1823005,61.5041213 C11.2081004,61.5830812 11.3362751,61.6944524 11.4007749,61.6843004 C11.9766233,61.5942108 12.1311228,62.0900794 12.415072,62.3990009 C12.5512716,62.5469944 12.6369214,62.7400328 12.8637957,62.4869849 C13.0446202,62.2852985 13.2067698,62.4820969 13.2869446,62.6097112 C13.6334436,63.1610774 14.174192,63.2998965 14.7555904,63.3598309 C14.7908403,63.3266677 14.8326152,63.2985429 14.8596901,63.2599653 C14.9925147,63.0709878 14.9571898,62.7264968 15.3069138,62.7386792 C15.7400376,62.7537192 15.5268882,63.2366534 15.7736375,63.4187125 C15.9126121,63.5212852 15.6900128,63.5962596 15.6246879,63.6809348 C15.3300888,64.062725 15.3313638,64.2841889 15.6666128,64.6487584 C15.8655873,64.8650335 16.0053869,65.3457869 16.4226107,64.8571375 C16.5108854,64.7537375 16.653835,64.8549567 16.7384348,64.956251 C16.8564845,65.0975518 16.9165593,65.2465981 16.8407345,65.4379068 C16.7641597,65.6310204 16.6233851,65.7695387 16.4936355,65.9207658 C16.310936,66.1337322 16.2075863,66.3563993 16.5276104,66.5343224 C16.6949349,66.62742 16.7946096,66.7431527 16.8132846,66.9375446 C16.8538595,67.3605444 17.3075332,67.0750102 17.4543828,67.3042197 C17.6148823,67.5548612 17.2923082,67.839117 17.4917327,68.0935937 C17.5216576,68.1317953 17.5696574,68.1940609 17.5989074,68.1887217 C18.1965807,68.0786289 18.5169048,68.7494879 19.0903531,68.7150463 C19.3083025,68.7019615 19.5447019,68.838299 19.5389269,69.0335934 C19.5245269,69.5192348 19.835926,69.5784923 20.1801001,69.6463979 C20.2206,69.6543691 20.2511249,69.7126491 20.2862998,69.7473915 C20.4541493,69.6120315 20.6064739,69.3826716 20.8366482,69.6687323 C21.0431976,69.9252394 21.3810717,70.0672921 21.629921,69.968329 C21.96802,69.833721 22.3085191,69.6676795 22.6347681,69.49111 C22.7919677,69.4060588 22.7900177,69.2399421 22.6524681,69.1158621 C22.5611183,69.0332926 22.4324937,68.990203 22.3472939,68.9031966 C22.0867447,68.6372895 22.1550695,68.2754273 22.4991685,68.1185601 C22.679618,68.0363666 22.8791174,67.9973378 23.0662419,67.9285298 C23.75249,67.6762339 23.9600894,67.3766372 23.9807143,66.6418583 C23.9890393,66.3442169 23.8805146,66.0070954 24.0620141,65.7595371 C24.2899385,65.4487356 24.2698385,65.1717742 24.1328139,64.8542799 C24.0112392,64.5728816 24.0339642,64.185677 23.5832155,64.161989 C23.5144406,64.1583794 23.4626158,64.0874658 23.4879657,63.9948946 C23.6006904,63.5841524 23.5270406,63.2208614 23.2520164,62.8837399 C23.1951665,62.8139543 23.2113665,62.5826392 23.2763913,62.5317288 C23.5887654,62.2873289 23.4894657,61.9065915 23.5695655,61.605942 C23.8829146,61.621734 23.9545394,61.9690075 24.2671385,61.9586299 C24.3022384,61.4446381 23.5299656,61.2280622 23.7717649,60.6418784 C24.5402127,61.2774686 24.5422377,61.2788222 25.0892862,60.4893729 C25.2643357,60.2367762 25.52061,60.2143666 25.7544593,60.3094946 C26.0318835,60.4223697 25.9472088,60.6735376 25.856834,60.8837967 C25.7680343,61.0904462 25.6595096,61.2884478 25.5614849,61.4911869 C25.4533352,61.7151324 25.4798101,61.8913259 25.7594843,61.9264443 C26.4029825,62.0073595 27.0357557,62.3554601 27.7007038,61.9705867 C27.8685533,61.8735035 28.1450026,61.8786923 28.1618775,62.1603914 C28.1803275,62.4683353 28.333777,62.6439272 28.5301265,62.8505015 C28.7387009,63.0697846 28.6544761,63.3518597 28.358827,63.4135237 C27.8861783,63.5121108 27.8183035,63.7008628 28.0958027,64.0730274 C28.1807025,64.186805 28.1082527,64.3117873 28.0748778,64.4309793 C28.0262779,64.6043152 28.0192279,64.7745679 28.1197276,64.9376015 C28.1920274,65.0548382 28.3751019,65.1662094 28.2257773,65.3182637 C28.1276776,65.4182045 27.975128,65.487614 27.8354784,65.5179948 C27.6169291,65.5656716 27.3886297,65.5674764 27.1700053,65.4886668 C27.0764806,65.454902 26.9859558,65.4179037 26.8835811,65.4671596 C26.7179816,65.5467212 26.6219819,65.9382874 26.7215066,66.1446362 C26.8112063,66.3303801 27.5194293,66.6605831 27.5581292,66.5477832 C27.6774539,66.2003593 27.9485031,66.2984953 28.1803275,66.2824025 C28.3628769,66.2697689 28.6202012,66.2232201 28.6464511,66.098313 C28.7522758,65.594774 29.2529744,65.4009085 29.4457239,64.9692606 C29.6862482,64.4304529 29.7793979,64.3896945 30.3502963,64.537312 C30.7464452,64.6398096 31.1299941,64.7044063 31.521043,64.5525776 C31.7111675,64.4788064 31.8396421,64.5334768 31.9826667,64.6767328 C32.1203663,64.8146495 32.3481407,64.8705983 32.4651403,65.019043 C32.6833897,65.2957789 32.8293393,65.1326702 33.0262888,65.0084398 C33.2474631,64.8688687 33.2533131,64.7256127 33.1439634,64.511368 C32.930139,64.0922034 32.945814,63.65281 33.0527637,63.1972486 C33.1528134,63.2042422 33.2302132,63.1939398 33.296063,63.216951 C33.6147371,63.3282469 33.8962113,63.3450917 34.009611,62.9421703 C34.1101857,62.5847448 33.9799861,62.3670409 33.5833122,62.2088954 C33.4443376,62.1535482 33.279113,62.1390346 33.1645134,62.0536826 C33.0049138,61.9347915 32.6926897,61.7745404 33.1470384,61.6079724 C33.3318379,61.5402925 33.4250626,61.4317037 33.3538128,61.2068558 C33.1131385,60.4476369 33.1195135,60.4470353 33.8707114,60.4347025 C34.0700608,60.4313937 34.2698602,60.4249265 34.4680847,60.4062017 C34.6786091,60.3862737 34.8442836,60.1433778 35.0924579,60.2891154 C35.401307,60.4704977 35.5025568,60.2628706 35.5261817,60.0150115 C35.5472566,59.7937732 35.5454566,59.5601269 35.4975318,59.3445286 C35.3669571,58.7568408 35.2881324,58.7357848 34.7680838,59.0744103 C34.709659,59.1124615 34.6291842,59.1723206 34.5781844,59.1571302 C34.0786858,59.0083095 33.6071621,59.2878278 33.1049635,59.2289462 C32.2687909,59.1311111 32.0158166,58.9579255 31.7509924,58.1327563 C31.7053925,57.9907035 31.6200427,57.8617356 31.5702429,57.7206604 C31.3998434,57.2384782 31.6198927,56.7014753 32.1047664,56.5000897 C32.4915403,56.3394626 32.7826145,56.1003267 32.9998138,55.7422997 C33.2274382,55.3669766 33.5450623,55.0873079 33.997311,55.0172968 C34.1790355,54.9890968 34.34951,54.9453304 34.4396598,54.7777849 C34.6096093,54.4620202 34.9009085,54.3480922 35.2156076,54.2400299 C35.9930554,53.9729196 36.7192783,53.5666894 37.3400516,53.0551792 C37.6696006,52.7835569 37.9175499,52.5766066 38.3537487,52.5901426 C38.9009472,52.6073634 39.3294959,52.2153459 39.4061457,51.6876677 C39.4376456,51.4703398 39.3551459,51.2751207 39.1677214,51.1813463 C39.0072969,51.101108 38.9122721,51.2800087 38.7983474,51.3700983 C38.7164477,51.4347702 38.7375976,51.5977286 38.5404232,51.5615574 C37.9889497,51.4604886 37.4087514,51.1090792 36.9001778,51.6853365 C36.8662029,51.7237637 36.7536282,51.7065429 36.6811784,51.6942853 C36.3572543,51.6393142 36.1063801,51.7989637 35.8618057,52.069834 C35.8003059,51.5676486 36.0054303,51.3238503 36.3628043,51.2689543 C36.6985034,51.2172919 36.9282277,51.0005656 37.2073019,50.8916009 C37.0634524,50.5729034 36.6735285,50.7660921 36.5080039,50.5158266 C37.0221275,49.7593149 36.9755526,49.576955 36.1471049,49.0532624 C36.0844051,49.0137072 36.0057303,48.9700161 35.9782054,48.9085025 C35.6752063,48.2320788 35.2797324,47.5746806 35.6947062,46.7893674 C35.9356805,46.3332796 35.6341814,45.708067 36.124455,45.3076272 C36.1657049,45.2740128 36.12618,45.1127089 36.0934051,45.0218673 C36.0004804,44.7646834 35.9355305,44.4933619 35.7462311,44.2800196 C35.4723318,43.9713237 35.3512072,43.5875783 35.2832574,43.1966889 C35.2068326,42.7570698 35.1273328,42.3572316 34.8564336,41.9578446 C34.5892093,41.5638719 34.4593847,41.0475489 34.4895346,40.5265636 C34.5038596,40.2790053 34.4908846,40.0227238 34.4425848,39.7799783 C34.1750605,38.4341996 34.708009,36.6392516 35.6327564,35.6549592 C36.117405,35.1390874 36.6866534,34.657582 36.7579782,33.8703887 C36.7708782,33.7278096 36.8799279,33.6427584 36.9957275,33.6051584 C37.5872509,33.4134737 37.554176,32.9226435 37.4434763,32.4982149 C37.3457516,32.1232678 37.4389013,31.8202872 37.525451,31.4837673 C37.6250508,31.0966379 37.9195749,30.8051628 38.0033497,30.4083325 C38.0378496,30.2450734 38.2224991,30.0466207 38.3753486,30.0827919 C38.8435723,30.1935614 39.1377965,29.8805792 39.4872955,29.7029568 C39.8076196,29.5402241 40.1179687,29.5114225 40.4838177,29.5663185 C40.9722163,29.6396385 41.4552149,29.7948512 41.9617635,29.7471744 C42.1768629,29.7268704 42.3373624,29.863208 42.481812,30.0069903 C42.7016364,30.2256718 42.9497357,30.2537214 43.2272349,30.1373119 C43.2540099,29.7434896 42.861086,29.6074529 42.7525613,29.3068786 C42.505587,29.1659539 42.6284366,28.8410148 42.4239122,28.6649717 C42.1830879,28.457871 42.2072378,28.1657943 42.3199625,27.9109416 C42.5533618,27.3830378 42.4435621,26.905142 42.2081378,26.412507 C41.8882637,25.7429265 41.6030395,25.056802 41.2963654,24.3807542 C41.2523405,24.2837463 41.2230906,24.1934311 41.2766404,24.1017624 C41.5593896,23.6178506 41.2919404,23.2674187 40.9891663,22.9778236 C41.3022904,22.4698478 41.8407138,22.4366094 42.2688126,22.2064975 C42.2979126,22.1900287 42.3270125,22.17356 42.3561124,22.1570912 C42.3408124,22.1873968 42.3253625,22.2177023 42.3104375,22.2483087 C42.1930629,23.049038 42.7186614,23.4502298 43.2719348,23.8580393 C43.4637843,23.6946297 43.6172338,23.5215946 43.8070583,23.4118778 C44.1123824,23.2353083 44.3283068,22.9702284 44.5727311,22.7317693 C45.0599298,22.9712812 45.1868294,22.4989502 45.4383037,22.2842543 C45.8187026,21.9594656 45.8391025,21.8177889 45.5786283,21.4235907 C45.4272787,21.1946068 45.2704542,20.9676533 45.0984796,20.7541605 C44.8545803,20.4515559 44.7981805,20.163164 44.986055,19.7898713 C45.2194543,19.3260379 45.1265296,19.1941372 44.609331,19.1041228 C44.4623314,19.0784796 44.3080569,19.09367 44.1616573,19.0659964 C43.6790337,18.9748541 43.2823598,18.592011 43.2259599,18.1135136 C43.186885,17.781581 43.0887853,17.3932483 43.6048589,17.2845844 C43.8577581,17.231418 43.7822334,17.0373269 43.7230585,16.8638406 C43.5936839,16.4850583 43.4637843,16.1060505 43.3491846,15.7226058 C43.2647348,15.4400043 43.4040844,15.2726844 43.6808336,15.274414 C43.9776828,15.276294 44.278057,15.2863708 44.5689061,15.3837548 C44.7864055,15.4566235 45.0835547,15.5000891 45.2083543,15.327054 C45.5280034,14.8839006 46.0050771,14.4999295 45.8811024,13.8328306 C45.8482525,13.6558851 45.6994529,13.4660804 45.8361776,13.2547684 C45.9019524,13.2376981 45.9728272,13.2037829 46.043852,13.2036325 C46.4240259,13.2029557 46.75395,13.2164917 46.8404247,12.6776087 C46.8922496,12.3548504 47.2705485,12.2206185 47.6026476,12.1547433 C47.7405722,12.1273705 47.9427716,12.1858761 47.9757715,11.9909578 C48.0845962,11.3484492 48.6159697,10.8426542 48.5566449,10.1469793 C48.5438199,9.9966546 48.5889698,9.85159386 48.6896945,9.72766431 C49.0480435,9.28669169 48.9295438,8.71118633 48.9945686,8.22479293 C49.0834434,7.56040121 48.0550463,7.59905399 47.8532969,6.97887985" id="Fill-1"></path>
                </g>
            </g>
        </g>
    </g>
</svg>