<?xml version="1.0" encoding="UTF-8"?>
<svg width="76px" height="70px" viewBox="0 0 76 70" version="1.1" xmlns="http://www.w3.org/2000/svg" xmlns:xlink="http://www.w3.org/1999/xlink">
    <!-- Generator: Sketch 61.2 (89653) - https://sketch.com -->
    <title>North East</title>
    <desc>Created with Sketch.</desc>
    <g id="Page-2" stroke="none" stroke-width="1" fill="none" fill-rule="evenodd" opacity="0.5">
        <g id="Home-Page_With-menu-Destinations-2" transform="translate(-571.000000, -515.000000)" fill="#FFFFFF">
            <g id="Group-7" transform="translate(374.000000, 493.000000)">
                <g id="North-East" transform="translate(197.000000, 22.000000)">
                    <path d="M6.45568584,24.1846938 C6.00908576,24.1944452 5.54315117,24.2879518 5.12078731,24.1935102 C4.55327843,24.066742 4.09891731,23.9861928 3.78153171,24.6073434 C3.66647772,24.8328277 3.38272328,25.0616516 3.12075421,24.9848426 C2.06797622,24.6764046 0.766572697,25.0645904 0,23.9407753 C0.00517402531,23.4980887 0.0172921372,23.0555356 0.0140243318,22.6128489 C0.00803335508,21.7722251 0.105795202,20.9965215 0.60263779,20.2359126 C1.02554628,19.5884466 1.38377945,18.8073998 1.03589433,17.9690469 C0.882988266,17.6004976 1.12575898,17.4571654 1.38663878,17.4029316 C2.51144465,17.1699667 3.56762661,16.8310723 4.4820675,16.0894319 C4.86753239,15.7768529 6.32361204,16.3456398 6.42940724,16.8401558 C6.68307064,18.0262195 7.10570681,19.2289808 6.39509528,20.4195862 C6.04407851,21.0078759 6.00963039,21.7273419 6.47352261,22.1617466 C7.28230446,22.9191496 7.0649954,23.5169235 6.45568584,24.1846938" id="Fill-1"></path>
                    <g id="Group-5" transform="translate(14.000000, 0.000000)">
                        <path d="M61.9622313,12.2084893 C61.8459987,11.2900621 61.8000881,10.3585864 61.0458242,9.63330485 C60.3867101,8.99949903 59.8141463,8.6395767 58.7475244,8.8812466 C58.0692694,9.03511068 57.1020971,9.19549903 56.3883342,8.7351301 C55.2914752,8.02738252 54.4492738,8.41639223 53.7352336,9.23926602 C53.3729427,9.65681942 53.0698779,9.59946019 52.6501642,9.42887767 C52.9510098,8.07998447 53.3852872,6.82419806 54.4478868,5.85738252 C54.7379136,5.59355728 54.6987996,5.28610097 54.3427503,5.0720233 C53.933162,4.82573204 53.6522895,4.47872233 53.4608801,4.05410097 C53.3220389,3.74650874 53.3632336,3.28111068 52.8227101,3.31740194 C52.3326743,3.35029515 51.9304371,3.54099417 51.7171128,4.00448932 C51.5904774,4.27959612 51.6337526,4.64332427 51.2792291,4.79922718 C50.7858644,3.79734369 50.5493767,2.8448 51.7732872,2.15431456 C51.8114304,2.13270291 51.8477705,2.09980971 51.8721821,2.06392621 C52.0308577,1.83000388 51.9620613,1.51738252 51.7291799,1.53885825 C50.7477213,1.62965437 50.4325893,0.793732039 49.8639092,0.32711068 C49.574021,0.0892466019 49.3464103,-0.0625786408 49.0515289,0.252761165 C48.3793767,0.971790291 47.4392515,1.29365437 46.6417123,1.82633398 C46.1014662,2.18720777 45.6914617,2.55039223 45.501162,3.24862524 C45.1474707,4.54532427 44.6739405,4.70326602 43.3695826,4.12192621 C42.8439002,3.88759612 42.3166922,3.73617864 41.7641016,3.82262524 C40.7858331,3.97594563 39.9527861,3.75194563 39.1903387,3.13295534 C38.6815781,2.71988738 38.144106,2.4935767 37.7431172,3.3092466 C37.6135691,3.5728 37.2913633,3.59930485 37.0225579,3.66196505 C36.04637,3.88936311 35.2531306,4.56571262 34.9932022,5.36031456 C34.7475602,6.11196505 33.9260255,6.13045049 33.7429383,6.81332427 C33.5425132,7.56198447 32.7842268,7.85109126 32.2201239,8.27666408 C31.7882045,8.60260583 31.4965132,9.2123534 30.9046698,9.2172466 C29.8950546,9.22540194 29.1138823,9.94103301 28.115502,9.96237282 C27.5692917,9.97419806 27.3082537,10.3352078 27.3511128,10.8851495 C27.4343342,11.951732 26.8594125,12.6774214 26.0572962,13.2930136 C25.5883432,13.6529359 25.1956765,14.1157515 24.5962045,14.2927223 C24.095766,14.440334 23.9481866,14.9142951 23.6900613,15.2739456 C23.4735468,15.5756932 23.8237705,15.7451883 23.9501284,15.9634796 C24.1140747,16.2470136 24.0395915,16.5033631 23.7947817,16.681965 C22.9904461,17.2687417 22.2064998,17.9633049 21.1391843,17.9457709 C20.7567817,17.9395184 20.5012917,18.0269165 20.1610546,18.1482951 C19.0535154,18.5435573 18.1120031,19.457635 16.707502,18.9941398 C15.7833275,18.689266 15.2289338,19.4407806 15.4787369,20.4205087 C15.7866564,21.6279068 16.7086116,22.1491689 18.1063163,21.7366447 C18.719936,21.5555961 19.0019181,21.6621592 19.3621284,22.131635 C19.7030591,22.576101 19.9337213,22.9634796 19.5366161,23.4460039 C18.9813902,24.1205864 18.8544774,24.6710718 19.7631172,25.2019845 C20.2434438,25.4826641 20.2473275,26.0683534 20.1070993,26.5601204 C19.9524461,27.1027223 19.4837705,26.9975184 19.0743208,26.8996544 C18.8070412,26.8359068 18.6496139,27.0739068 18.462643,27.0944311 C17.8094931,27.1661981 17.3587101,27.6799845 16.6929383,27.7503922 C15.5727772,27.8690524 14.3312515,27.2095573 13.3270456,28.2421592 C13.2098421,28.3628583 12.7955378,28.2344117 12.5282582,28.1785476 C12.253766,28.1210524 11.991757,28.081635 11.7101911,28.1411689 C10.087511,28.4846447 8.5397302,28.4739068 7.07697405,27.4983922 C6.27333199,26.9623146 5.57857136,27.1297709 4.94206577,27.8350718 C4.6391396,28.1709359 4.2561821,28.2454214 3.86337673,28.3791689 C3.08692036,28.6438097 2.2042179,28.6340233 1.54787785,29.2157709 C1.53164966,29.6156544 1.39918881,30.0541398 1.52083087,30.4091689 C1.96967204,31.7190524 1.2686698,32.5920816 0.455734676,33.4511107 C0.335895749,33.5776544 0.232701119,33.7192854 0.12173915,33.8539845 C0.844933781,33.6094602 0.969765996,34.1157709 1.13828949,34.6082175 C1.6635557,36.142101 1.50987338,37.731033 1.55495168,39.3036544 C1.57048635,39.8444893 1.52388233,40.3816544 1.68879955,40.9188194 C1.84303669,41.4213243 2.09478166,41.726334 2.66318434,41.6537515 C3.2358868,41.5806252 3.7264774,41.7968777 4.25854004,41.9673243 C5.47787338,42.3578291 6.7188443,42.8360039 8.03305011,42.6262757 C9.04488456,42.4646641 10.0518644,42.4335379 11.0675826,42.4241592 C12.9020613,42.4074408 14.7282179,42.3972466 16.5635289,42.6106447 C17.5189114,42.7218291 18.5650054,42.8920039 19.5176139,42.3884117 C21.0133812,41.5977515 23.8173902,42.8037903 24.8688935,44.0775184 C25.032285,44.2752854 25.0892917,44.4972466 24.9633499,44.7007223 C24.8317213,44.913033 24.5841374,44.9205087 24.3430725,44.8843534 C23.8752291,44.8142175 23.4942134,44.3458291 22.8320479,44.5748583 C23.3324864,45.3149553 23.3993409,46.0078874 22.8056944,46.6653437 C22.7226116,46.7573631 22.6932067,46.9195184 22.6876586,47.0510913 C22.6485445,47.9714214 21.976115,48.5012466 21.3427996,48.9943728 C20.9024192,49.3371689 20.4587101,49.6250524 20.2317928,50.1548777 C20.1266564,50.4000816 19.9334438,50.7175961 19.6251083,50.4579845 C19.0629472,49.9844311 18.7053723,50.3534602 18.324634,50.6766835 C17.6854931,51.2195573 17.009596,51.6535573 16.1166295,51.6742175 C15.5935826,51.6863146 15.2300434,52.0730136 15.0867638,52.4811883 C14.7452783,53.4552078 14.5029651,54.4637515 14.2498331,55.465635 C14.1293007,55.9427223 14.3693946,56.3446447 14.6429159,56.7230524 C14.9359942,57.1286447 15.3387861,57.5292078 15.3106295,58.0370136 C15.2613902,58.9222757 15.7750054,59.6888777 15.7590546,60.5635379 C15.7537839,60.8534602 15.9539315,61.1569748 16.0999852,61.4341204 C16.1515826,61.5322563 16.3198286,61.6231883 16.4367548,61.6257709 C16.6474438,61.6301204 16.7435647,61.4648388 16.7645087,61.2677515 C16.8179092,60.7637515 16.7209562,60.2805476 16.5846116,59.7957126 C16.5162313,59.5524117 16.4190009,59.2059456 16.7990456,59.133499 C17.1337347,59.0696155 17.3162671,59.3678291 17.309332,59.6383146 C17.2789562,60.8317126 18.1973051,61.4069359 18.878889,62.2137709 C19.9197123,61.233499 20.8143432,60.3387223 19.9695065,58.8725282 C19.7613141,58.5111107 19.7097168,57.9928388 20.1749248,57.7987417 C20.7584461,57.555033 20.6157213,57.0767223 20.756643,56.6743922 C20.8879942,56.2995184 20.7652425,55.6733243 21.1594349,55.5867417 C21.8991351,55.4245864 22.3040076,54.7831689 23.0253991,54.5873049 C23.5779897,54.4369748 23.7459584,54.5273631 23.9553991,54.9839262 C24.2484774,55.6226252 24.0056094,56.4047223 24.3733096,56.944334 C24.8357436,57.6234019 24.8154931,58.3020621 24.7773499,59.0176932 C24.7154886,60.1762951 25.016889,61.2007417 25.5554707,62.2553631 C26.2892067,63.6924699 27.0562313,65.1488777 27.1111575,66.847499 C27.1354304,67.5938485 27.211162,68.3881786 27.6214438,69.0773049 C27.6939852,69.1993631 27.7988443,69.2760233 27.9465624,69.2690913 C28.362115,69.0872272 27.9252022,68.4062563 28.5360479,68.3300039 C28.9984819,68.5595767 29.2943342,68.9411107 29.5799226,69.367635 C30.0420792,70.0578485 30.2459718,69.9968194 30.7833051,69.379868 C31.3033007,68.7827612 31.3071843,67.7163146 32.4052917,67.6200816 C32.490455,67.6127417 32.6026653,67.4220427 32.6262447,67.3021592 C32.7541284,66.6491883 33.0387459,65.9747417 32.4792201,65.3742369 C32.1873902,65.0610718 32.0110993,64.7152854 32.0134573,64.278567 C32.0198376,63.1260816 32.0062447,61.9746835 31.291511,60.9707612 C31.2743119,60.9467029 31.311068,60.8856738 31.3216094,60.8454408 C31.46586,60.7047612 31.6499181,60.6692854 31.8305087,60.7020427 C32.7410904,60.8681398 33.1247414,60.3960816 33.4143521,59.6179262 C34.2916452,57.2606252 34.0071664,54.9884117 32.9232067,52.7978874 C32.6403924,52.2261981 32.4584148,51.6214796 32.160898,51.0624311 C32.0606161,50.8740427 32.0939047,50.6961204 32.2898913,50.6182369 C32.4002984,50.5744699 32.6348443,50.5891495 32.6756228,50.6569748 C33.0592738,51.2954019 33.6613812,51.2114019 34.2626564,51.1616544 C35.0044371,51.1006252 35.7992022,50.4269942 36.4653902,51.3409359 C36.495766,51.3825282 36.6573544,51.3761398 36.7287861,51.3386252 C37.786115,50.7862369 38.5163834,51.428334 39.2534483,52.1377126 C39.6533275,51.4231689 39.8422403,50.7697903 39.9384998,50.1130136 C40.3339405,47.415635 41.5147145,45.0344117 42.9789964,42.7722563 C43.3676407,42.1717515 43.5368577,41.5471883 43.6174438,40.8656738 C43.6820792,40.3191301 43.5192425,40.0018874 42.9092291,39.951732 C42.349426,39.9057903 41.938728,39.6831495 41.9949025,39.0176738 C42.0535736,38.3212078 41.7948935,37.4715573 42.7567951,37.1842175 C43.6177213,36.9269165 44.0238421,36.3481592 44.2334215,35.5606252 C44.6749114,35.709868 45.1327682,35.6878485 45.5875736,35.6737126 C45.7662224,35.6681398 45.9648443,35.634567 45.9656765,35.3942563 C45.9666474,35.1580233 45.8952157,34.9650136 45.609766,34.9185282 C45.2659226,34.8623922 44.7750546,35.0574408 44.6127727,34.6805282 C44.3432738,34.0547417 44.4497973,33.359499 44.5706072,32.7070718 C44.6579897,32.2348777 45.0494081,32.0114214 45.5300121,31.8759068 C46.2831664,31.6635961 46.0988309,31.339965 45.568294,31.0346835 C45.6566474,30.2732466 45.7437526,29.547965 45.1372067,28.8769165 C44.8700658,28.5814214 44.6857302,28.0767417 44.9693767,27.6052272 C45.4105893,26.8719262 45.72586,26.0120816 46.7421329,25.8507417 C47.0601776,25.8003146 47.233417,25.6270136 47.352285,25.3686252 C47.9922582,23.9793631 49.5705535,23.5603146 50.5264908,22.4617903 C50.869502,22.0677515 51.4220926,21.777965 51.6731441,21.2371301 C52.081068,20.3582563 52.7510009,19.8102175 53.7145669,19.5514214 C54.6377705,19.3033631 55.5462716,19.0426641 56.4060881,18.5595961 C57.3351172,18.0376544 58.2567951,18.2178874 58.5555602,18.9795961 C58.855851,19.7448388 59.5081687,19.7441592 60.0345445,20.0387029 C60.2801866,20.1761204 60.5702134,20.2726252 60.785757,20.0075767 C60.9939494,19.751635 60.8362447,19.4992272 60.6864461,19.2640816 C60.2405177,18.5639456 59.564898,18.0651107 59.0299226,17.4431301 C58.5606922,16.8976738 58.1150412,16.0866252 58.5817749,15.6235379 C59.545757,14.6671883 59.9879405,13.136567 61.5695647,12.821635 C61.9281105,12.7502757 61.9967682,12.4808777 61.9622313,12.2084893" id="Fill-3"></path>
                    </g>
                </g>
            </g>
        </g>
    </g>
</svg>