<?xml version="1.0" encoding="UTF-8"?>
<svg width="61px" height="70px" viewBox="0 0 61 70" version="1.1" xmlns="http://www.w3.org/2000/svg" xmlns:xlink="http://www.w3.org/1999/xlink">
    <!-- Generator: Sketch 61.2 (89653) - https://sketch.com -->
    <title>South</title>
    <desc>Created with Sketch.</desc>
    <g id="Page-2" stroke="none" stroke-width="1" fill="none" fill-rule="evenodd" opacity="0.5">
        <g id="Home-Page_With-menu-Destinations-2" transform="translate(-1389.000000, -513.000000)" fill="#FFFFFF">
            <g id="Group-7" transform="translate(374.000000, 493.000000)">
                <g id="South" transform="translate(1015.000000, 20.000000)">
                    <path d="M25.4094215,0.0675627873 C25.6282434,-0.0580778195 25.7612837,0.0146707276 25.8733589,0.0989290087 C26.2825253,0.406440983 26.7117832,0.577769084 27.2454292,0.50097895 C27.4904573,0.465746864 27.7614296,0.563096369 28.0123979,0.631100446 C28.5003577,0.763154874 28.446897,1.50338013 29.0169696,1.55460284 C29.0027309,1.60872494 28.9939955,1.66513143 28.9730305,1.716442 C28.9074276,1.87713897 28.8218206,2.03678161 29.0304221,2.21610502 C29.4488481,2.23763086 29.9138337,2.15873208 30.3084994,2.37065176 C30.5509069,2.15442691 30.406336,1.83259366 30.5851497,1.64597782 C31.6292928,2.07886682 31.6279825,2.0666542 32.8462223,1.93319401 C33.1803516,1.89655615 33.5451421,1.85851253 33.8005654,2.20670394 C33.8999743,2.34227279 34.0550278,2.45719441 34.2091204,2.52765858 C34.6790852,2.74256552 34.7104453,3.10086091 34.6209948,3.54877406 C34.3853135,4.72953218 34.3968443,4.90042098 34.6327002,6.00807911 C34.6567226,6.1210678 34.6824047,6.24600552 34.6589064,6.35486476 C34.5612446,6.80769811 34.8475039,7.00371503 35.1839044,7.13937174 C35.505542,7.26896607 35.8394093,7.39074081 36.2008804,7.31157845 C36.5733581,7.57885028 36.8514934,8.11848987 37.4526641,7.73216697 C37.5023685,7.70018572 37.6580335,7.80693631 37.7486196,7.87168954 C38.4726975,8.38918827 39.0156903,9.54956274 38.9513104,10.4278169 C39.7561907,10.3024399 40.1919128,10.7073014 40.3847906,11.772435 C40.4104727,11.9145934 40.3916042,12.0643957 40.4013005,12.2101563 C40.4416581,12.8174486 40.4582553,12.8231595 41.0361898,12.4477313 C41.7804464,12.5955128 42.531342,12.5362069 43.2659896,12.4282263 C43.7594527,12.3557413 44.3271668,12.4204067 44.7233175,12.0208168 C45.1353666,11.6049728 45.7387211,11.5649084 46.1854498,11.2045043 C46.3559649,11.0669147 46.6976066,11.1362367 46.8785169,11.3941953 C46.9473519,11.4922477 47.0262326,11.5731673 47.1597096,11.5454033 C47.3098713,11.5142128 47.8993365,10.7767991 47.8180098,10.6922772 C47.3995839,10.2578946 47.8974147,9.83106798 47.7826314,9.40309918 C47.6470579,8.89781307 48.1344936,8.74888941 48.4103577,8.58669881 C48.679845,8.42819836 48.7969868,8.83929794 48.9729179,9.01466762 C49.2532371,9.29388849 49.1949719,9.62222342 48.9963288,10.0844579 C49.5590637,9.89054959 49.82165,9.55913954 50.0553221,9.27007828 C50.2993894,8.96818938 50.4314687,9.02854959 50.6805151,9.21964632 C51.0671442,9.51626358 51.3743685,9.45730914 51.539555,9.03426053 C51.6490096,8.75407319 51.9433055,8.42046663 51.4987606,8.12736378 C51.3822303,8.05057365 51.3516564,7.81264724 51.466789,7.73251841 C51.8114882,7.49274693 51.8243292,6.85813007 52.455637,6.94212477 C52.6935022,6.97366672 52.9706766,6.84890471 53.1571775,6.64225667 C53.3096104,6.47347652 53.5177751,6.30908941 53.2597312,6.05772033 C53.1694944,5.96985977 52.9826441,5.90150425 53.1307966,5.7184907 C53.2404259,5.58300971 53.3912864,5.56728266 53.5151545,5.66515933 C53.7364223,5.83965041 53.8555733,5.84395558 53.8865839,5.52405527 C53.8963676,5.42275204 53.9229232,5.27453126 54.0971072,5.35096995 C54.5954622,5.56983062 54.6141559,5.06164512 54.8173415,4.82433373 C55.0532848,5.29825362 55.04717,5.31556215 55.5142522,5.48267294 C55.705907,5.55129204 55.8049665,5.68563084 55.8583399,5.83525738 C56.0652816,6.41566427 56.4124267,6.73565245 57.0675821,6.63803936 C57.1900525,6.61976436 57.3309546,6.73995761 57.4659167,6.78942311 C58.2181225,7.06477812 58.9516346,6.8026022 59.1356896,6.05025219 C59.2392915,5.62711571 59.5003054,5.44884662 59.773811,5.32830193 C60.0517716,5.2058243 60.3075443,5.19484173 60.3500858,4.80017208 C60.3639751,4.67119277 60.6520688,4.61830071 60.7648429,4.82257652 C60.8452086,4.96807362 60.8221471,5.16953789 61,5.26609665 C60.9306409,5.49304049 60.8417144,5.72007219 60.6455172,5.85695894 C60.0301952,6.2865971 59.734589,6.98297994 59.2484637,7.51919296 C59.1908974,7.58271615 59.1549075,7.6663594 59.1109684,7.74191949 C58.8046177,8.2701372 58.1882474,8.4659784 57.8310567,8.89711019 C57.4973641,9.29986301 57.3548897,9.90654021 56.8768009,10.1728456 C56.5338488,10.3638984 56.1993046,10.5668782 55.8678178,10.774361 L54.877179,11.4028935 C54.1089874,11.8886745 53.4187156,12.4180344 53.0349692,13.3135972 C52.8520498,13.7405116 52.465246,14.189567 51.9998235,14.3196885 C50.8172242,14.6502199 49.8541457,15.3029361 48.9666284,16.1156463 C48.6667419,16.3902984 48.3439687,16.6416675 47.9713162,16.8188822 C47.7509219,16.923612 47.5806689,17.0748201 47.5915008,17.3513173 C47.3613228,17.6108574 47.3024462,17.9319877 47.3810648,18.2440684 C47.4409897,18.4816434 47.6958015,18.6563102 47.6518624,18.9458108 L47.6518624,18.9458108 L47.6350904,19.2933872 C47.5122706,19.4489882 47.4459689,19.6276966 47.4215097,19.8232742 C46.7025858,20.3721392 45.8271234,20.6367752 45.0777129,21.1268614 C44.6563169,21.4023922 44.2840139,21.0935623 43.9974925,20.9587842 C43.2234482,20.5945143 42.6879678,21.2706892 42.0197092,21.2785966 C41.9660738,21.2792116 41.8659661,21.4059944 41.8682373,21.4712748 C41.8895516,22.0847173 41.2945831,22.3907356 41.1666968,22.9439057 C41.0500791,23.4483132 40.2906229,23.5539216 40.3045995,24.186342 C39.9899502,24.1856391 39.7155711,24.3562643 39.3995241,24.3878063 C39.1175452,24.4160095 39.2256021,24.2426606 39.1992212,24.1452232 C39.0220672,23.4890805 38.6578881,23.2918336 38.0935808,23.6177963 C37.7915978,23.7921995 37.5337287,24.0238878 37.1574074,24.0317953 C36.9305489,24.0365397 36.7708656,24.2120851 36.7019433,24.3976466 C36.3880801,25.2423381 35.8165225,25.9424111 35.4793358,26.7913199 C35.0136513,27.9640827 35.1935133,29.0264047 35.5786574,30.1117463 C35.7586941,30.6186139 35.8651787,31.1167833 35.8436022,31.6508877 C35.8339059,31.8891655 35.832683,32.1449276 35.6823466,32.3219667 C35.3095195,32.7606544 35.3814119,33.2266669 35.5263323,33.7116572 C35.5450261,33.7501401 35.5685243,33.7873051 35.5796183,33.8279846 C35.5832871,33.8415151 35.5550718,33.8639196 35.5414445,33.8822824 C35.5517523,33.9800712 35.5620601,34.07786 35.5722805,34.1758246 C35.9123499,34.799371 35.8662269,35.4846834 35.8846587,36.1597161 C35.9006444,36.2559234 35.9167176,36.3522186 35.932616,36.4486895 C36.1717041,36.8269292 36.028094,37.2639477 36.1078483,37.6674034 C36.1096827,37.6766287 35.9638888,37.7153752 35.8870172,37.7404155 C35.8954906,37.8431245 35.9039639,37.9458335 35.9125246,38.0485425 L35.9125246,38.0485425 L35.9285977,38.0741099 C36.0142047,38.1042461 36.0606771,38.1646942 36.0681895,38.255542 C36.3681634,39.0213347 36.408783,39.786073 36.0440798,40.5428161 C35.926676,40.7863655 35.8807277,41.0372075 35.8857069,41.3050943 C35.9008192,42.119386 35.5345436,42.7990754 35.2158759,43.5243643 C34.9071667,44.2266338 34.5496265,44.833926 34.0006062,45.3584536 C33.8327991,45.5187113 33.8383024,45.8586438 33.4781416,45.8123413 C33.4274762,45.8058396 33.2973187,45.8865834 33.4191776,45.9746197 C33.7280615,46.1976098 33.5402503,46.4699776 33.4597972,46.6842695 C33.1770321,47.4364438 33.2394029,48.2379957 33.0888919,49.0077421 C33.0510676,49.2007718 33.0473113,49.4356231 33.1223485,49.610202 C33.4563904,50.3868015 33.4544686,51.2014447 33.436561,52.0176693 C33.4152466,52.9845748 33.5602544,53.9402342 33.599389,54.9023074 C33.623062,55.4839443 33.6037567,56.0675142 33.6037567,56.7034489 C33.3621354,56.7251505 33.17083,56.4533978 32.9260639,56.5421369 C32.9351487,56.6816595 33.1300356,56.698353 33.1320448,56.7618762 C33.1371987,56.921431 32.9879979,56.8820695 32.881688,56.8667817 C32.3655129,56.7924517 31.8440965,56.8101995 31.3243398,56.7323551 C30.4668723,56.6039029 29.8673614,57.1410824 30.0026728,57.9834895 C30.0584921,58.3312416 29.94598,58.451347 29.7729316,58.6288253 C29.1792734,59.2373476 28.8258389,60.0216789 28.2916688,60.674395 C28.2031791,60.7824635 28.1658789,60.9366588 28.1183583,61.0741606 C27.869574,61.7951444 27.9668864,62.0466891 28.6244878,62.4228202 C28.7748241,62.5088357 28.9182595,62.6073274 29.064927,62.7001082 C28.9395739,62.9020117 28.7220623,62.8169627 28.5482277,62.8676583 C28.1643939,62.8300539 27.7859761,62.8946315 27.4411896,63.0410072 C26.668543,63.3689906 25.8937998,63.6446092 25.0608788,63.8124229 C24.5925736,63.9066973 24.1815728,64.3333482 23.768126,64.6420024 C23.5344539,64.8164056 23.5725403,65.1187338 23.5907973,65.373178 C23.6168288,65.7357785 23.5818871,66.0732509 23.3635893,66.3716254 C23.0837943,66.754346 23.32131,67.2316046 23.0722635,67.6625607 C22.7895858,68.1516805 22.4761594,68.5152475 21.9458329,68.6627654 C21.6525853,68.7443878 21.4024033,68.8561465 21.2517175,69.1346644 C21.130208,69.359236 20.9119976,69.4678317 20.6886332,69.5093019 C20.3526695,69.5716829 19.9910237,69.5237989 19.7926426,69.9128455 C19.7586619,69.9793559 19.5755677,70.0146759 19.4755473,69.9942043 C18.5200686,69.7982753 17.6190114,69.6068271 16.878249,68.7911296 C16.1235972,67.9600566 15.4689659,67.0418258 14.6699383,66.2581974 C14.3187749,65.913784 14.3047983,65.3634254 13.8654947,65.0879826 C13.8184982,65.0585493 13.8993881,64.8225558 13.9209645,64.6824182 C14.0122495,64.6449896 14.178397,64.630229 14.0721744,64.4851712 C13.9947787,64.3793871 13.8714348,64.4337728 13.8046963,64.5531753 C13.6944555,64.5684631 13.5298804,64.6144141 13.5143314,64.474013 C13.4572018,63.95792 13.0627982,63.5802074 12.9783269,63.080193 C12.9862761,62.978714 12.9415508,62.9070198 12.8549829,62.8589601 C12.8242343,62.8195107 12.8074623,62.7749654 12.8045796,62.7249727 C12.8284273,62.3266129 12.8113059,61.9395871 12.509585,61.6300544 C12.4813696,61.5339349 12.4532416,61.4378154 12.4252009,61.3415203 C12.4969186,61.2662238 12.5686363,61.1908394 12.6402666,61.1155429 C12.7719092,61.1639541 12.9003197,61.2286194 13.0360679,61.2557684 C13.1581889,61.2800179 13.3535126,61.3608496 13.3791073,61.165272 C13.41038,60.9260277 13.1663128,60.956076 13.0189465,60.9011631 C12.9762304,60.6135076 13.0859471,60.3006362 12.8789179,60.0400417 C12.8463349,59.8395439 12.8056279,59.6401004 12.7830032,59.4385483 C12.748673,59.1320028 12.6608822,58.8751864 12.3100683,58.8184284 C12.3190657,58.6898884 12.2617615,58.6299675 12.1354475,58.6411258 C12.1488127,58.4876334 12.110901,58.3580391 11.9628359,58.2800189 C11.9030857,58.1482281 11.7720546,58.0021159 11.794854,57.8870186 C11.980132,56.9539394 11.0469285,56.3013111 11.189403,55.3821139 C11.2072232,55.2670166 11.019412,55.2266886 10.9686593,55.1444511 C10.7466926,54.7851014 10.3595394,54.5167752 10.5060322,53.9549948 C10.550408,53.7848967 10.193654,53.455156 10.1152101,53.1280511 C9.91447045,52.2903007 9.74884715,51.4435005 9.43507135,50.6321082 C9.2942566,50.2681019 9.14488115,49.920877 8.85967014,49.6758338 C8.61621437,49.4666378 8.52466731,49.2371461 8.47583639,48.9327092 C8.36454731,48.238435 8.02351705,47.679554 7.38364854,47.3449809 C7.13512623,47.215123 6.98269339,47.0089143 6.90162882,46.7539429 C6.86633778,46.6427115 6.86590101,46.5036282 6.76369675,46.4469581 C5.85661216,45.9438685 5.71780656,44.9774902 5.4908607,44.1303386 C5.17175631,42.9393887 4.49720824,41.8989439 4.20055384,40.7099269 C4.03562937,40.0490397 3.62506527,39.4457891 3.74002322,38.7184793 C3.74884598,38.663215 3.74019793,38.5973196 3.71774793,38.5460969 C3.56819778,38.2059886 3.50914643,37.8359199 3.22376071,37.5436957 C2.90186098,37.213955 3.56007385,37.0655585 3.44232057,36.6534046 C3.35182176,36.336228 3.05368235,35.9589547 3.33400153,35.5759705 C2.91714795,34.9591893 3.04695608,34.0962229 2.44063153,33.5653694 C2.20652264,33.3603907 2.06457229,33.1347647 2.1809279,32.8029154 C2.2744841,32.5362586 2.14607363,32.2649451 2.05662307,32.0437122 C1.91484743,31.6929729 1.86322118,31.3074407 1.72747296,30.9934271 C1.58770646,30.6699245 1.40277791,30.3406231 1.27646394,29.9965611 C1.10498791,29.5295822 0.684814867,29.4478719 0.291546875,29.3024626 C-0.100061389,29.1575806 -0.0937718962,29.0724437 0.289974502,28.7335655 C0.306397066,28.7191564 0.313734807,28.6775983 0.30561088,28.6560725 C0.296438703,28.6319108 0.264903886,28.6162716 0.243240079,28.5970302 C0.356538298,28.3277375 0.64725262,28.3574344 0.841528056,28.3141192 C1.29681743,28.2125523 1.45326856,27.9303442 1.49650882,27.5243405 C1.53808935,27.1335368 1.32215011,26.6830756 1.76817996,26.3860191 C1.79709415,26.3667776 1.80539279,26.2478144 1.77918657,26.2235649 C1.43384684,25.9038257 1.47735401,25.5374105 1.54517676,25.157318 L1.58587203,24.9278851 C1.62037688,24.7173712 1.37919231,24.5943664 1.26685499,24.4288371 C1.1145095,24.2042655 0.76186115,24.304163 0.632751845,24.0491916 C0.840479807,23.6723577 1.17714237,23.5690337 1.51476582,23.4935614 C2.00429799,23.384175 2.25963391,23.0046174 2.54082664,22.6504515 C2.70426609,22.4445942 2.66233614,22.2749354 2.43276967,22.1521942 C2.31160958,22.087441 2.13786235,22.0857716 2.13000048,21.8899304 C2.15917674,21.7375802 2.29309052,21.7605118 2.39546948,21.7236982 C2.92588335,21.5331287 2.98773003,21.3472157 2.64338031,20.9253971 C2.52213287,20.7769128 2.42621811,20.573867 2.16633977,20.6058483 C1.87798401,20.6414318 1.74581732,20.3690641 1.8519525,20.2278721 C2.18049113,19.7909415 1.7616284,19.5401875 1.6638792,19.2612302 C2.00246355,19.0234795 2.3206944,18.8280776 2.60337215,18.5899755 C2.74986491,18.4664435 2.88683609,18.4116185 3.06931872,18.4073134 C3.37759121,18.4001088 3.44668827,18.8923037 3.8094697,18.7562955 C4.09083714,18.650775 4.02575836,18.2112965 4.38041585,18.1645546 C4.48995785,18.1501455 4.58648409,18.0399684 4.69655021,18.0230113 C5.24478431,17.938138 5.58109745,17.5830934 5.7380727,17.0983667 C5.88168278,16.6548466 6.12688563,16.6524743 6.46625617,16.7895368 C6.62646352,16.8542022 6.79348449,16.9162317 6.93351305,17.0140205 C7.26406083,17.2448303 7.55826931,17.3693287 7.75848482,16.8718622 C7.82234064,16.7132738 7.96490247,16.6522986 8.11130788,16.6748788 C8.77633436,16.7774999 9.40851572,16.5844703 10.0596529,16.4816734 L10.0596529,16.4816734 L10.0596529,13.327567 C10.6691222,14.0047962 11.508158,13.7681877 11.9271954,14.4210796 C11.9824905,14.5072708 12.2157259,14.5512011 12.3326056,14.5121031 C13.0530146,14.2709259 13.7067724,14.6162179 14.4732169,14.802658 C14.2979847,14.3243451 14.1645077,13.9396037 14.2691578,13.5299977 C14.2971985,13.420172 14.3273356,13.2106246 14.3413123,13.2119425 C14.8722503,13.2611444 14.9587308,12.7772963 15.217823,12.4993055 C15.3929679,12.3114596 15.6200884,12.3053972 15.864243,12.3902705 C16.105515,12.4742652 16.2834552,12.6393552 16.6119938,12.366636 C16.948569,12.0872394 16.8415603,11.8450957 16.8427832,11.5578795 L16.8427832,11.5578795 C17.7863818,11.4976072 17.9281575,11.3573817 17.958644,10.3655238 C17.9689518,10.0314779 18.1932771,9.93843359 18.4141081,9.98851412 C19.0272463,10.1272459 19.4178063,9.76982917 19.7673973,9.39510386 C20.1278201,9.0086931 20.471209,8.67368077 21.030275,8.85713363 C21.0607615,8.72051045 21.0867057,8.66384039 21.0837356,8.60866395 C21.0419804,7.81677669 21.040408,7.8151952 21.7929633,7.52446459 C21.9032915,7.48185222 22.0203459,7.45241893 22.0379041,7.31421426 C22.1253455,6.6279354 22.6582926,6.24319398 23.1058075,5.81996965 C22.8599058,5.49198616 22.6341829,5.22594437 22.4481188,4.93433516 C22.1642181,4.48984857 22.8642735,4.45400146 22.8190241,4.06381269 C22.7713288,3.65209809 23.102488,3.40925149 23.3113516,3.13934383 C23.5846825,3.2176276 23.6511589,3.44465929 23.8176558,3.55694509 C24.0343812,3.70296935 24.2981905,3.7075381 24.4625034,3.54420531 C24.6564295,3.35135137 24.405898,3.1906544 24.3086729,3.02565226 C24.2851747,2.98576357 24.3051788,2.91986814 24.3051788,2.83279832 C24.7932259,2.7722624 25.4202534,2.7319344 25.351331,2.06858714 C25.2784777,1.3684263 25.7349027,0.727395624 25.4094215,0.0675627873 Z" id="Combined-Shape"></path>
                </g>
            </g>
        </g>
    </g>
</svg>