<?xml version="1.0" encoding="UTF-8"?>
<svg width="71px" height="61px" viewBox="0 0 71 61" version="1.1" xmlns="http://www.w3.org/2000/svg" xmlns:xlink="http://www.w3.org/1999/xlink">
    <!-- Generator: Sketch 61.2 (89653) - https://sketch.com -->
    <title>west</title>
    <desc>Created with Sketch.</desc>
    <g id="Page-2" stroke="none" stroke-width="1" fill="none" fill-rule="evenodd" opacity="0.5">
        <g id="Home-Page_With-menu-Destinations-2" transform="translate(-1166.000000, -517.000000)">
            <g id="Group-7" transform="translate(374.000000, 493.000000)">
                <g id="west" transform="translate(792.000000, 19.000000)">
                    <rect id="Rectangle" opacity="0.404878162" x="0" y="0.5" width="71" height="70"></rect>
                    <g id="Group-10" transform="translate(0.000000, 5.500000)">
                        <path d="M1.96347044,11.1801935 C1.96347044,11.1793935 1.96327044,11.1786935 1.96317044,11.1779935 C1.96017044,11.1757935 1.95757044,11.1732935 1.95457044,11.1710935 L1.96347044,11.1801935 Z" id="Fill-1" fill="#D4A6CB"></path>
                        <g id="Group-5" transform="translate(0.000000, 0.319149)" fill="#FFFFFF">
                            <path d="M43.1682305,29.2508363 C42.7766028,29.2485119 42.5178633,29.1701974 42.3569179,28.9804903 C42.5178633,29.1701974 42.7766028,29.2485119 43.1682305,29.2507469 C43.3263792,29.2475285 43.5015787,29.2559321 43.5805177,29.1345267 C43.5015787,29.2559321 43.3263792,29.2475285 43.1682305,29.2508363 M42.3490445,28.9582296 C42.3162445,28.9200558 42.2865445,28.8784847 42.2614445,28.8317284 C42.2865445,28.8784847 42.3162445,28.9200558 42.3490445,28.9582296 M3.10375146,4.52641919 C3.15970156,4.49888394 3.19002785,4.44104204 3.20346355,4.37515413 C3.2014482,4.30515381 3.19444244,4.21861446 3.11805089,4.21602185 C3.19444244,4.21861446 3.2014482,4.30515381 3.20375146,4.37533293 C3.19012382,4.44113144 3.15970156,4.49888394 3.10375146,4.52641919 M70.34851,32.4934693 C69.9950437,32.3393434 69.7127578,32.1452557 69.5530755,31.7291874 C69.411707,31.3608588 69.2605952,30.8225804 68.624031,30.9736667 C68.592726,30.9386218 68.5595266,30.9055438 68.5245227,30.8742537 C68.5149598,30.6177647 68.4884363,30.4127701 68.7395977,30.1740717 C69.1493588,29.7846446 68.9986981,29.3181546 68.4862712,29.0696222 C68.1293766,28.8963647 68.0794872,28.6882412 68.3550069,28.4406027 C68.4620933,28.3443188 68.6091454,28.2911257 68.7398684,28.2215724 C69.2473334,27.9514945 69.5895227,26.8083347 69.1622597,26.4990102 C68.8041022,26.2395709 68.8671632,26.0591614 68.9689268,25.7838984 C69.1779573,25.2187106 69.3028163,24.7122587 68.5997629,24.3445559 C68.2213067,24.1466239 68.3902813,23.691309 68.3754859,23.3531082 C68.3574427,22.9419569 68.7570094,23.3114477 68.9196689,23.1239756 C69.0466028,22.9776275 69.3006511,22.9468739 69.4565443,22.8160815 C69.7308912,22.5859655 69.6549294,22.1731155 69.3108455,22.1461167 C68.5594363,22.0871126 68.1084465,21.6958975 67.7832178,21.0678614 C67.6137019,20.7405675 67.2203601,20.7670299 66.9341949,20.6218441 C66.6689598,20.4872968 66.5615126,20.6863016 66.3913652,20.7904528 C65.896801,21.0933405 65.3548734,21.1284748 64.8379357,20.9018454 C64.3737743,20.6985494 63.9205291,20.6467867 63.4374224,20.7537093 C63.2600577,20.792956 63.0288341,20.8727903 62.9277019,20.7175916 C62.5537565,20.1437321 61.7626524,20.3591864 61.4264173,19.8246629 C61.1457553,19.9802192 61.102632,20.235546 60.8841288,20.3759937 C60.5459992,20.5931466 60.2484668,20.4075519 59.9333423,20.4157767 C59.5181682,20.4266835 59.8682064,21.0348728 59.4044961,21.1041579 C58.8682521,21.1843498 58.3509535,21.385232 57.8698315,20.9570053 C57.6632368,20.7731985 57.4396816,20.6244367 57.1493665,20.835421 C57.0949662,20.8751147 56.9194058,20.8614365 56.9130005,20.8397123 C56.7064058,20.1363118 56.1104389,20.7381537 55.7536346,20.5024949 C55.6170475,20.4122901 55.4165875,20.5355729 55.2788277,20.6744114 C54.4600272,21.5005582 53.4373385,21.5358713 52.3773906,21.3782588 C52.183336,21.3494719 52.0327654,21.1882835 51.7894529,21.2775942 C51.4356257,21.4074926 51.4171314,21.0890493 51.39151,20.8775285 C51.3527172,20.5562244 51.5964808,20.5778592 51.8134503,20.5985106 C51.9551797,20.6119207 52.1005177,20.7099032 52.2530729,20.5563138 C52.2297972,20.2331322 52.0355621,19.9604617 51.8683919,19.6909203 C51.5536282,19.1836638 50.9271682,19.05904 50.4959357,19.4782373 C50.192449,19.773079 49.9554516,19.8250205 49.5550729,19.7277531 C48.8539141,19.5573564 48.2267324,19.8704358 47.8383525,20.3997741 C47.5612089,20.7774897 47.3387362,21.1771084 46.941876,21.4507623 C46.8180996,21.5361395 46.6771822,21.6826663 46.7579255,21.8215047 C47.0741327,22.3658623 46.6572445,22.422989 46.3082889,22.5074721 C46.1074681,22.5561058 45.9541911,22.5732706 45.8047032,22.785596 C45.4705431,23.2598638 44.929247,23.0190198 44.4907972,22.9828127 C44.0571288,22.9469633 44.2567769,22.5156969 44.2064363,22.2503573 C44.1523067,21.9649026 44.2214122,21.6034578 43.8858086,21.4685529 C43.4014389,21.2740182 42.9559522,20.904438 42.3721644,21.0613352 C41.4850704,21.2997654 40.5943677,20.9976823 39.7083563,21.0751923 C39.03751,21.1339282 38.6120513,20.8474901 38.3904808,20.2456482 C38.2068912,19.7469742 37.8322241,19.5765775 37.3377502,19.5830143 C37.1281784,19.5858751 36.9179751,19.5930271 36.7097565,19.6139467 C35.6823766,19.7172039 35.5046511,19.5924907 35.3041911,18.6100724 C35.2922826,18.5517835 35.2881327,18.4919748 35.2825393,18.4327025 C35.2476257,18.0612449 34.9660615,17.8653691 34.6980297,17.6836186 C34.4143906,17.4913189 34.2830361,17.7837468 34.1050399,17.9216912 C33.9185634,18.0662513 33.7047515,18.0366598 33.5056447,17.9587923 C33.3353169,17.8922786 33.1725672,17.8413205 32.9844668,17.8566079 C32.1939039,17.920976 32.010585,17.7711414 32.087449,17.0394011 C32.1194757,16.7339208 32.1301212,16.4659885 31.9917299,16.1808914 C31.655585,15.488219 31.7080907,15.4000705 32.4330666,15.2758937 C32.6498557,15.2387032 32.9924058,15.363774 33.0211848,15.0405031 C33.047618,14.7441416 32.7063309,14.7378836 32.4889103,14.6625192 C32.3764109,14.6235408 32.2520933,14.6165675 32.141308,14.5741919 C32.0263728,14.5302964 31.9369687,14.4405386 31.9517642,14.3077794 C31.9690856,14.1535642 32.1023347,14.1436407 32.2214198,14.1424785 C32.916444,14.1355053 33.2453715,13.4149401 33.9033169,13.2984517 C34.0800501,13.2670722 34.2355825,12.9654361 34.3472699,12.7593688 C34.5620742,12.3630579 34.4812407,12.1064794 34.0343105,11.962277 C33.6711009,11.8452522 33.5639243,11.631407 33.5678036,11.3057223 C33.5710513,11.0380582 33.589275,10.7705729 33.6008226,10.5031771 C33.5584211,10.4617848 33.5217032,10.3924997 33.4729865,10.3829339 C33.0590755,10.3023843 32.6844084,10.231937 32.7017299,9.65450141 C32.7087667,9.42223981 32.4244058,9.26033613 32.1621479,9.27580236 C31.4723563,9.31674763 31.0870437,8.51929826 30.3682025,8.65000128 C30.3329281,8.65652749 30.2751898,8.58241477 30.2392839,8.53708889 C29.9993093,8.23446937 30.3874186,7.89653679 30.1942661,7.59856607 C30.0177133,7.3260744 29.4719967,7.66561619 29.4230996,7.16265092 C29.400726,6.93164093 29.2807388,6.79405409 29.0794668,6.6832873 C28.6945151,6.47167713 28.8188328,6.20705268 29.038599,5.95387144 C29.1946727,5.77408773 29.3640983,5.60950205 29.4561187,5.37983306 C29.5474173,5.15230966 29.475064,4.97529736 29.333064,4.80713567 C29.2313906,4.68680306 29.0593487,4.56655986 28.9531644,4.68948507 C28.451383,5.27040727 28.2831301,4.69869328 28.0438773,4.44157844 C27.6405215,4.0082559 27.639078,3.74488304 27.9933563,3.29099846 C28.0720247,3.19042329 28.3396956,3.10129134 28.1725253,2.97943893 C27.8757146,2.76291175 28.1321987,2.18887337 27.6112013,2.17090393 C27.1904338,2.15642111 27.2330158,2.56596321 27.073153,2.7906258 C27.040585,2.83648808 26.9903347,2.86992374 26.9480234,2.90934921 C26.2486689,2.83818668 25.5982114,2.6730646 25.1814135,2.01758267 C25.0849726,1.86596001 24.8898353,1.63182101 24.6723245,1.87168162 C24.3994211,2.17242374 24.2963944,1.94311234 24.1326524,1.76699404 C23.7910043,1.39991701 23.6051593,0.810233594 22.9124808,0.917424378 C22.8349853,0.929403999 22.6807159,0.797091771 22.6496816,0.70322161 C22.512463,0.287153294 22.3267083,0.334714176 21.9852407,0.518878493 C21.5765621,0.739518072 21.1086117,1.20922648 20.6567197,0.535506921 C20.6192801,0.479631825 20.4889179,0.455940784 20.4062801,0.463897398 C20.0072546,0.502428864 19.6416091,0.342044988 19.2596346,0.297344912 C18.9482991,0.260959049 18.6101695,0.212772366 18.3496257,0.516643489 C18.1498874,0.74953089 17.9808226,0.599159831 17.8685939,0.394433479 C17.7998493,0.269005063 17.8379205,0.0950323635 17.6933944,0 C17.669397,0.0539082927 17.6607362,0.137318636 17.6198684,0.157970072 C17.2778595,0.330869969 17.1461441,0.565187772 17.1019382,0.976964881 C17.0455532,1.50317419 17.4721848,1.52319982 17.8777057,1.78460587 C17.1299052,2.06898776 16.5168874,2.2658469 15.971261,2.62192771 C15.7320983,2.77784158 15.3199014,2.71624487 15.0058595,2.59850487 C14.67197,2.47325526 14.7878074,2.1494479 14.7569535,1.89957447 C14.7163563,1.5707607 14.480261,1.56047968 14.2311746,1.55297007 C13.3116028,1.52534542 12.4893741,1.82599814 11.741754,2.3227054 C10.9303512,2.86178832 9.99048081,2.82424026 9.3187324,2.13693188 C9.04249098,1.85424859 8.75325845,1.75653422 8.36884803,1.7425878 C7.46010216,1.70977794 6.55397256,1.87838663 5.63936264,1.72148936 C5.32080991,1.66695527 4.90852275,1.26867758 4.61288488,1.79890989 C4.57364092,1.76368623 4.51860915,1.73597219 4.49813012,1.69216611 C4.42911487,1.54474526 4.45266125,1.31614906 4.14547573,1.36496155 C4.17281118,1.84101737 4.01222668,2.29141534 3.93112249,2.75593854 C3.85931055,3.16682165 3.64910724,3.38254422 3.19883914,3.35885318 C2.72006277,3.33373174 2.22955832,3.40462606 1.76214918,3.32702672 C1.40146557,3.26721802 1.12756976,3.34839336 0.841855656,3.51575045 C0.588258451,3.6641547 -0.0513730611,4.92568027 0.0032978411,5.20139035 C0.0189052109,5.28050948 0.0690653125,5.37187644 0.132577384,5.41952672 C0.44039441,5.65000032 1.16374638,5.48005063 1.38369301,5.13523423 C1.76016442,4.54501442 1.76016442,4.54501442 2.55244142,4.75438958 C2.52519619,4.80588407 2.50769428,4.86613977 2.4689014,4.90610164 C2.40701322,4.96948635 2.33844905,5.03465906 2.25969047,5.07274353 C1.47345794,5.45287298 1.55347954,5.49310305 1.79426607,6.27106319 C1.93942364,6.7396988 2.47548717,6.82445014 2.50940839,7.29067194 C2.71392808,7.4384504 2.85060534,7.65506697 2.83057738,7.88607697 C2.78664219,8.39467444 3.10266887,8.61030761 3.46100686,8.86536625 C4.21286709,9.40051557 5.08534613,9.77510222 5.6999878,10.4976343 C5.77107802,10.5812234 5.8977413,10.6347741 6.00888742,10.6656171 C6.83481499,10.8951073 7.6569535,11.1051083 8.53574765,11.0638948 C9.65532834,11.0115063 10.6443665,10.5756806 11.6421555,10.1477221 C11.6772496,10.1326134 11.6782419,10.0396373 11.6950221,9.98304698 C11.6950221,9.98304698 11.721726,9.95238272 11.7214554,9.95274032 C11.8685977,9.93155249 12.0076206,9.91778486 12.1295024,9.80076006 C12.681444,9.27052775 12.6853233,9.27455076 13.3894592,9.75042777 C13.238167,9.96829595 12.9883588,10.1718601 12.953355,10.4068931 C12.8320145,11.2210603 12.1876015,11.6424926 11.7296651,12.2154582 C11.3853105,12.6464564 11.0153347,12.7919998 10.5057044,12.6899048 C10.2973055,12.6480656 10.0440691,12.5727012 9.95872478,12.8236475 C9.77540585,13.3621046 9.49032325,13.6309309 8.89462694,13.3977752 C8.83237789,13.373369 8.72493062,13.4401509 8.64698399,13.4807386 C7.76764854,13.9368582 6.77031055,13.8283264 5.84072478,14.0486084 C5.58775909,14.1085959 5.36167776,13.9165643 5.45054053,13.609296 C5.55492046,13.2488346 5.41364219,13.1259094 5.1054643,13.2633174 C4.67693825,13.4544549 4.74784803,13.0718223 4.61586201,12.8884626 C4.33195222,13.2676086 3.92201067,13.5678143 4.28061932,14.1323763 C4.82462186,14.988651 5.37304498,15.8332142 6.0397413,16.608403 C7.04366506,17.7757902 8.15945667,18.8290134 9.09355324,20.0817777 C10.1977972,21.5626019 11.6619128,22.8215349 13.4399802,23.5547055 C14.1694668,23.8554476 14.9599395,24.0043883 15.7893855,23.8029698 C16.6041263,23.6049484 17.3889154,23.368038 18.1402343,22.9872827 C18.4323537,22.8392361 18.685139,22.5460036 18.9660717,22.5105117 C20.3505266,22.3358238 21.5952368,21.9841236 22.237214,20.5890342 C22.2613919,20.5364669 22.3046053,20.4893531 22.3475482,20.448676 C23.1303525,19.7082639 23.1980145,18.7090384 22.9891644,17.814858 C22.8101759,17.0488775 23.4560323,16.5397437 23.3033868,15.8555643 C23.2953576,15.819983 23.4449357,15.6966108 23.4979827,15.7093056 C23.914059,15.8088974 24.0182585,15.5195985 24.2152,15.2555998 C24.3739802,15.0426487 24.6912699,15.0789451 24.9517235,15.2729435 C24.684233,15.7215534 24.5146269,16.1855402 24.5264452,16.7085311 C24.539707,17.3006284 24.5477362,17.3234254 25.1224122,17.209619 C25.3538163,17.1637567 25.5792661,17.0785584 25.8376447,17.2352769 C25.7118836,17.4793393 25.469383,17.524844 25.2516917,17.6030691 C25.0155062,17.6878204 24.6523868,17.5281518 24.5629827,17.88164 C24.4988391,18.1348212 24.4411911,18.4621152 24.5498112,18.6694341 C24.7260031,19.0055787 24.5292419,19.552797 25.1059027,19.6826955 C25.252233,19.7155947 25.2183118,19.9053912 25.1365761,19.9795934 C24.7821174,20.3011657 24.9155469,20.7662253 24.7724643,21.1508248 C24.6542813,21.4681953 24.6033995,21.8426032 25.0832585,22.0397305 C25.149477,22.0669976 25.4822839,22.3427076 25.4387997,22.4083274 C25.0511416,22.9925574 25.8273601,22.9353413 25.903322,23.2407322 C25.7569014,23.4445645 25.2043283,23.5217169 25.5128671,23.7907219 C25.9641276,24.1839932 25.610571,24.5023472 25.6064211,24.8529746 C25.5983017,25.5331309 25.3317133,26.1094937 24.9609255,26.6728041 C24.5682152,27.2692819 24.2680666,27.8865006 24.1707235,28.6460443 C24.0410831,29.6586798 23.9844274,30.6295655 24.100355,31.6557899 C24.2046447,32.5801875 24.4321695,33.5187997 24.2530907,34.4775269 C24.1531314,35.0127656 24.4932457,34.6648202 24.6679039,34.6177958 C24.6679039,34.6177958 24.7217629,34.6649096 24.7214923,34.6647308 C24.6649268,35.0107094 24.6781886,35.325845 25.2083881,35.4438532 C24.2407311,35.6533177 24.1805571,35.7675711 24.5088531,36.5799503 C24.5862585,36.7713561 24.7576689,36.9646392 24.669167,37.1668623 C24.3376231,37.9239922 24.8293004,38.6054896 24.8517642,39.3341009 C24.8935342,40.6894966 25.6463868,41.9125801 25.6912241,43.2986401 C25.7080945,43.8194854 25.6648811,44.3860142 25.8229395,44.883973 C26.1723461,45.9850253 26.1327413,47.1069972 26.1533105,48.230042 C26.1598061,48.5866592 26.2627426,48.9482828 26.2563372,49.2836228 C26.2367604,50.2969735 26.941618,51.1941935 26.6919001,52.2313247 C26.6746689,52.302666 26.7217616,52.4261276 26.7811238,52.4727945 C27.4407832,52.9920306 27.5639281,53.7985988 27.8422445,54.5023568 C28.0946689,55.1406739 28.585444,55.6218255 28.8301098,56.2550468 C29.228233,57.2855624 29.4764173,58.3791944 30.1082,59.3142306 C30.2252102,59.0403086 30.525449,59.0705258 30.7260895,59.0264516 C31.1963855,58.9230156 31.3578722,58.6358623 31.4025291,58.2226548 C31.4455621,57.8251817 31.2224579,57.3668271 31.6831009,57.0644758 C31.7129624,57.0449865 31.7216231,56.9239387 31.6945583,56.8992643 C31.2665736,56.5087644 31.4167832,56.0500522 31.4948201,55.5808802 C31.5304554,55.3666775 31.281369,55.2415172 31.1654414,55.0730873 C31.0080145,54.8444912 30.6439027,54.9462285 30.5104732,54.6867893 C30.7250069,54.303352 31.0726994,54.1982174 31.4214745,54.1213333 C31.9269548,54.0100301 32.1906562,53.6239109 32.4811517,53.2635388 C32.6498557,53.0540743 32.606552,52.8813532 32.3695545,52.7565506 C32.2444249,52.6905733 32.064895,52.688964 32.0567756,52.4896017 C32.0869078,52.3346712 32.2252991,52.3580047 32.3310323,52.320546 C32.8788239,52.1266371 32.9426066,51.9374664 32.5869751,51.5082562 C32.4617553,51.3569912 32.3626981,51.1505662 32.0943055,51.1831079 C31.7965024,51.2192255 31.6600056,50.9421744 31.7697083,50.798419 C32.1090107,50.3539214 31.6764249,50.098684 31.5754732,49.8148385 C31.9250602,49.5729217 32.2538074,49.3741851 32.5456562,49.1319107 C32.6970386,49.0062141 32.8384973,48.9504284 33.0268684,48.9460478 C33.3453309,48.938717 33.4166917,49.4394473 33.7912686,49.3010558 C34.0819446,49.1936862 34.0147337,48.7465067 34.3809205,48.6990352 C34.4941416,48.6843736 34.5938302,48.5722658 34.7074122,48.5550115 C35.2736981,48.468651 35.6209395,48.107385 35.7831479,47.6140749 C35.931463,47.1627829 36.1846994,47.1604585 36.5351886,47.2999228 C36.7005545,47.3657213 36.8730475,47.4288378 37.017754,47.5282508 C37.3590412,47.763105 37.6629789,47.889785 37.869754,47.3836907 C37.9357019,47.222234 38.0828442,47.1602797 38.2341365,47.1832556 C38.920951,47.287675 39.573754,47.0912628 40.2462241,46.9865752 L40.2462241,43.7771991 C40.8756612,44.4662955 41.742186,44.2256303 42.1749522,44.8899628 C42.2321492,44.9776644 42.4729357,45.0223645 42.5937349,44.9825814 C43.3377464,44.737178 44.0128328,45.0884312 44.8044783,45.2781383 C44.6234147,44.7915333 44.4856549,44.40005 44.5936435,43.9832665 C44.622693,43.8715163 44.6537273,43.6582075 44.6681619,43.6595485 C45.216585,43.7096126 45.3058086,43.2173754 45.5734795,42.9345133 C45.7543626,42.7433757 45.9889243,42.7372071 46.2409878,42.8234783 C46.4902546,42.9089448 46.6740247,43.0769277 47.0133271,42.7994296 C47.3609294,42.5152265 47.2504147,42.2687503 47.2515875,41.9765906 L47.2522191,41.9759648 C48.2261009,41.9152621 48.3726117,41.7724901 48.4040971,40.7632517 C48.4147426,40.4234417 48.6463271,40.328767 48.8744834,40.3796357 C49.5077095,40.5208879 49.9109751,40.1572081 50.2720196,39.775827 C50.6442508,39.3827346 50.9989802,39.0418518 51.5762724,39.2284299 C51.6077578,39.0895021 51.634552,39.0317496 51.6315748,38.9756063 C51.5883614,38.1699321 51.5868277,38.1683229 52.3640386,37.8724084 C52.4778912,37.8291387 52.5987807,37.7991896 52.6170043,37.6585632 C52.7073105,36.9601692 53.2576282,36.5686859 53.7198048,36.1381348 C53.465937,35.804404 53.2328188,35.5336109 53.0405685,35.2369812 C52.7474567,34.7846164 53.4704478,34.7481412 53.4237159,34.3511151 C53.3743677,33.932186 53.7163766,33.6851734 53.9321733,33.4104467 C54.2144592,33.4901916 54.2831136,33.7212016 54.4549751,33.8352762 C54.6788912,33.9839487 54.9512534,33.9886869 55.1209497,33.822492 C55.3212292,33.6261693 55.0625799,33.4626564 54.9620793,33.2947629 C54.9378112,33.2541752 54.9584706,33.1871251 54.9584706,33.0986189 C55.4625977,33.0370222 56.1101682,32.9959876 56.0389878,32.3210164 C55.9637477,31.6085866 56.4351263,30.9563231 56.0989814,30.2848385 C56.3249726,30.1570857 56.4623715,30.231109 56.5781187,30.3168438 C57.0006003,30.6297443 57.4440119,30.8040746 57.9951416,30.7259389 C58.2481975,30.6900894 58.5279573,30.7891448 58.7871479,30.8582511 C59.2910945,30.9926195 59.2359726,31.7459052 59.8247222,31.7979361 C59.8099268,31.8529172 59.8009954,31.9104015 59.7792534,31.9627006 C59.7115914,32.1262135 59.6231797,32.2885642 59.8385253,32.4711193 C60.2707502,32.4930223 60.75097,32.412741 61.1585659,32.6282847 C61.4088252,32.408271 61.2595177,32.0807982 61.4442801,31.8909123 C62.522632,32.3314762 62.5212788,32.3189602 63.7794313,32.1832508 C64.1245075,32.1459709 64.5011593,32.1071712 64.764951,32.4615534 C64.8676168,32.5994979 65.0277502,32.7164333 65.1868912,32.7880428 C65.6722534,33.006805 65.7046409,33.3713788 65.6123499,33.8270514 C65.3688569,35.0285895 65.3808557,35.2023834 65.6244389,36.3295405 C65.6492483,36.4445091 65.6756816,36.5716361 65.6514135,36.6824029 C65.5506422,37.1430819 65.8462801,37.342623 66.1937019,37.4806569 C66.525787,37.6124327 66.8705926,37.7364307 67.2439967,37.6558812 C67.2932546,37.3612183 67.1600056,37.0186369 67.6197464,36.8691598 C67.9584173,36.7590188 67.9209776,36.4846498 67.6791987,36.2377265 C67.3649764,35.91678 67.4398557,35.581887 67.565707,35.1749375 C67.8003588,34.416109 68.4985405,34.1453159 68.9719039,33.6285831 C69.3112064,33.7901291 69.4929014,34.1436173 69.9136689,34.1340515 C70.4548747,34.1216249 70.7224554,33.9441656 70.8449687,33.3826432 C70.9810145,32.758809 70.9772254,32.7673914 70.34851,32.4934693" id="Fill-3"></path>
                        </g>
                    </g>
                </g>
            </g>
        </g>
    </g>
</svg>